<?xml version="1.0" encoding="UTF-8" standalone="no"?>
<svg
   xmlns:dc="http://purl.org/dc/elements/1.1/"
   xmlns:cc="http://creativecommons.org/ns#"
   xmlns:rdf="http://www.w3.org/1999/02/22-rdf-syntax-ns#"
   xmlns:svg="http://www.w3.org/2000/svg"
   xmlns="http://www.w3.org/2000/svg"
   xmlns:sodipodi="http://sodipodi.sourceforge.net/DTD/sodipodi-0.dtd"
   xmlns:inkscape="http://www.inkscape.org/namespaces/inkscape"
   version="1.1"
   id="LOGO"
   x="0px"
   y="0px"
   viewBox="0 0 536.76751 174.52375"
   xml:space="preserve"
   sodipodi:docname="LOGO.svg"
   width="536.76752"
   height="174.52376"
   inkscape:version="1.0.2-2 (e86c870879, 2021-01-15)"><metadata
   id="metadata1615"><rdf:RDF><cc:Work
       rdf:about=""><dc:format>image/svg+xml</dc:format><dc:type
         rdf:resource="http://purl.org/dc/dcmitype/StillImage" /></cc:Work></rdf:RDF></metadata><defs
   id="defs1613" /><sodipodi:namedview
   pagecolor="#ffffff"
   bordercolor="#666666"
   borderopacity="1"
   objecttolerance="10"
   gridtolerance="10"
   guidetolerance="10"
   inkscape:pageopacity="0"
   inkscape:pageshadow="2"
   inkscape:window-width="1920"
   inkscape:window-height="1018"
   id="namedview1611"
   showgrid="false"
   inkscape:zoom="1.306584"
   inkscape:cx="305.575"
   inkscape:cy="-54.614401"
   inkscape:window-x="-8"
   inkscape:window-y="-8"
   inkscape:window-maximized="1"
   inkscape:current-layer="LOGO" />
<style
   type="text/css"
   id="style1240">
	.st0{display:none;fill:#443D3A;}
	.st1{display:none;fill:none;stroke:#FFFFFF;stroke-miterlimit:10;}
	.st2{fill:none;}
	.st3{display:none;fill:#8CC63F;}
	.st4{font-family:'Gadugi';}
	.st5{font-size:36px;}
	.st6{display:none;}
	.st7{display:inline;}
	.st8{fill:#8CC63F;stroke:#FFFFFF;stroke-miterlimit:10;}
	.st9{fill:#8CC63F;}
	.st10{display:inline;fill:#FFFFFF;stroke:#8CC63F;stroke-width:3;stroke-miterlimit:10;}
	.st11{fill:#674E25;stroke:#FFFFFF;stroke-width:3;stroke-miterlimit:10;}
	.st12{font-size:200px;}
	.st13{fill:#FFFFFF;}
	.st14{fill:#E2AB6C;}
	.st15{fill:#BFBFBF;}
	.st16{fill:#747374;}
	.st17{fill:#191518;}
	.st18{fill:#1A1A1A;}
	.st19{fill:#D9C979;}
	.st20{fill:#847A5C;}
	.st21{fill:#3C393C;}
	.st22{fill:#674E25;stroke:#FFFFFF;stroke-miterlimit:10;}
	.st23{font-size:72px;}
	.st24{fill:#674E25;stroke:#FFFFFF;stroke-width:5;stroke-miterlimit:10;}
	.st25{font-family:'UDDigiKyokashoNK-B';}
	.st26{font-size:150px;}
	.st27{font-size:60px;}
</style>
<rect
   x="-115.02"
   y="-351.80441"
   class="st0"
   width="841.53998"
   height="594.38"
   id="rect1242" />
<circle
   class="st1"
   cx="92.209999"
   cy="10.565592"
   r="151.53999"
   id="circle1244" />
<rect
   x="177.31"
   y="-79.514427"
   class="st2"
   width="282.51001"
   height="39.400002"
   id="rect1246" />
<text
   class="st3 st4 st5"
   id="text1248"
   x="260.08429"
   y="-48.913315">S I L I C</text>
<g
   class="st6"
   id="g1336"
   transform="translate(-115.37,-352.25442)">
	<g
   class="st7"
   id="g1292">
		<path
   class="st2"
   d="m 167.5,84.42 c 22.6,17.3 27.65,19.31 30.98,20.43 16.63,5.57 31.57,2.57 40.39,0.68 16.67,-3.56 30.25,-11.1 40.67,-19 C 256.06,50.89 215.98,27.4 170.48,27.4 c -26.33,0 -50.84,7.87 -71.37,21.4 14.28,0.9 25.52,5.25 25.52,5.25 12.89,4.98 16.9,10.5 42.87,30.37 z"
   id="path1250" />
		<path
   class="st8"
   d="m 238.86,105.53 c -8.82,1.88 -23.76,4.89 -40.39,-0.68 -3.33,-1.12 -8.38,-3.13 -30.98,-20.43 -25.96,-19.87 -29.98,-25.4 -42.87,-30.38 0,0 -11.24,-4.34 -25.52,-5.25 -4.37,2.88 -8.56,6.01 -12.55,9.39 2.43,-0.24 4.9,-0.37 7.4,-0.35 50.37,0.5 71.26,57.18 123.24,60.97 16.39,1.19 38.97,-2.65 67.31,-24.09 -1.56,-2.79 -3.22,-5.52 -4.97,-8.18 -10.41,7.9 -23.99,15.44 -40.67,19 z"
   id="path1252" />
		<path
   class="st9"
   d="m 96.69,48.68 c 0.82,0.03 1.62,0.07 2.42,0.12 20.53,-13.53 45.04,-21.4 71.37,-21.4 45.51,0 85.59,23.49 109.06,59.14 2.74,-2.08 5.26,-4.18 7.57,-6.24 C 261.4,42.96 218.36,18.47 169.59,18.47 c -33.83,0 -64.9,11.79 -89.35,31.47 5.28,-0.98 10.78,-1.46 16.45,-1.26 z"
   id="path1254" />
		<path
   class="st2"
   d="m 51.21,105.12 c 13.84,-8.63 31.15,-15.63 50.43,-14.97 15.41,0.52 27.94,5.37 27.94,5.37 12.89,4.98 16.91,10.5 42.87,30.38 22.6,17.3 27.65,19.31 30.98,20.43 16.63,5.57 31.57,2.57 40.39,0.68 23.06,-4.92 40.2,-17.46 51.25,-28.02 -2.73,-8.5 -6.27,-16.62 -10.55,-24.27 C 256.18,116.16 233.6,120 217.21,118.81 165.23,115.02 144.34,58.34 93.97,57.84 91.47,57.82 89,57.95 86.57,58.19 71.55,70.87 59.41,86.89 51.21,105.12 Z"
   id="path1256" />
		<path
   class="st2"
   d="M 222.15,160.28 C 170.17,156.49 149.28,99.81 98.91,99.31 c -20.36,-0.2 -38.4,8.85 -53.22,20.28 -4.02,12.73 -6.19,26.29 -6.19,40.37 0,73.2 58.64,132.55 130.98,132.55 72.34,0 130.98,-59.34 130.98,-132.55 0,-10.53 -1.22,-20.77 -3.51,-30.59 -32.35,27.43 -57.81,32.22 -75.8,30.91 z"
   id="path1258" />
		<path
   class="st8"
   d="m 243.81,147 c -8.82,1.88 -23.76,4.89 -40.39,-0.68 -3.33,-1.12 -8.38,-3.13 -30.98,-20.43 -25.96,-19.87 -29.98,-25.4 -42.87,-30.38 0,0 -12.53,-4.84 -27.94,-5.37 -19.27,-0.65 -36.58,6.35 -50.43,14.97 -2.11,4.68 -3.96,9.51 -5.52,14.46 14.82,-11.41 32.87,-20.46 53.22,-20.26 50.37,0.5 71.26,57.18 123.24,60.97 18,1.31 43.45,-3.47 75.8,-30.91 -0.82,-3.52 -1.79,-6.98 -2.88,-10.38 -11.05,10.56 -28.19,23.09 -51.25,28.01 z"
   id="path1260" />
		<path
   class="st9"
   d="m 86.56,58.18 c -7.32,0.73 -14.32,2.6 -20.93,5.28 -14.5,15.44 -25.59,34.1 -32.1,54.8 4.94,-4.3 10.89,-8.92 17.68,-13.15 8.2,-18.22 20.34,-34.24 35.35,-46.93 z"
   id="path1262" />
		<path
   class="st9"
   d="m 303,110.68 c -2.93,-7.75 -6.5,-15.18 -10.67,-22.22 -2.65,2.23 -5.26,4.32 -7.81,6.26 4.28,7.65 7.82,15.77 10.55,24.27 3.13,-3.01 5.78,-5.85 7.93,-8.31 z"
   id="path1264" />
		<path
   class="st2"
   d="m 225.39,195.15 c -51.98,-3.79 -72.87,-60.47 -123.24,-60.97 -24.89,-0.25 -46.32,13.33 -62.62,28.18 1.27,72.09 59.41,130.14 130.95,130.14 70.97,0 128.76,-57.13 130.91,-128.43 -32.44,27.59 -57.96,32.4 -76,31.08 z"
   id="path1266" />
		<path
   class="st8"
   d="m 39.53,162.37 c 16.3,-14.85 37.73,-28.43 62.62,-28.18 50.37,0.5 71.26,57.18 123.24,60.97 18.04,1.31 43.56,-3.49 76,-31.08 0.04,-1.37 0.07,-2.74 0.07,-4.12 0,-2.99 -0.11,-5.96 -0.3,-8.9 -10.84,11.04 -28.96,25.46 -54.1,30.83 -8.82,1.88 -23.76,4.89 -40.39,-0.68 -3.33,-1.12 -8.38,-3.13 -30.98,-20.43 -25.96,-19.87 -29.98,-25.4 -42.87,-30.38 0,0 -12.53,-4.84 -27.94,-5.37 -26.84,-0.91 -49.89,13.02 -65.04,25.52 -0.22,3.11 -0.34,6.24 -0.34,9.4 0,0.81 0.01,1.61 0.03,2.42 z"
   id="path1268" />
		<path
   class="st9"
   d="m 311.02,143.06 c -0.93,-7.34 -2.4,-14.51 -4.4,-21.46 -2.95,2.78 -5.84,5.35 -8.69,7.76 1.64,7.03 2.72,14.28 3.21,21.69 3.56,-3.62 6.34,-6.89 8.32,-9.34 0.53,0.45 1.05,0.9 1.56,1.35 z"
   id="path1270" />
		<path
   class="st2"
   d="m 229.93,236.26 c -51.98,-3.79 -72.87,-60.47 -123.24,-60.97 -23.86,-0.24 -44.54,12.23 -60.57,26.34 17.27,52.78 66.41,90.86 124.36,90.86 51.46,0 95.98,-30.04 117.39,-73.73 -23.98,15.64 -43.39,18.56 -57.94,17.5 z"
   id="path1272" />
		<path
   class="st8"
   d="m 106.69,175.29 c 50.37,0.5 71.26,57.18 123.24,60.97 14.54,1.06 33.96,-1.86 57.93,-17.49 2.63,-5.36 4.91,-10.92 6.81,-16.66 -10.7,8.56 -25.09,17.03 -43.08,20.87 -8.82,1.88 -23.76,4.89 -40.39,-0.68 -3.33,-1.12 -8.38,-3.13 -30.98,-20.43 -25.96,-19.87 -29.98,-25.4 -42.87,-30.38 0,0 -12.53,-4.84 -27.94,-5.37 -27.39,-0.93 -50.82,13.59 -65.95,26.28 0.78,3.12 1.66,6.2 2.65,9.22 16.04,-14.09 36.72,-26.56 60.58,-26.33 z"
   id="path1274" />
		<path
   class="st9"
   d="m 309.63,187.96 c 1.66,-8.71 2.55,-17.7 2.55,-26.9 0,-2.22 -0.07,-4.43 -0.17,-6.63 -3.62,3.48 -7.16,6.69 -10.62,9.64 -0.4,13.26 -2.73,26.04 -6.71,38.04 6.25,-4.99 11.24,-10.01 14.95,-14.15 z"
   id="path1276" />
		<path
   class="st2"
   d="m 113.58,211.56 c -20.33,-0.2 -38.35,8.82 -53.16,20.23 23.32,36.52 63.88,60.71 110.05,60.71 25.29,0 48.9,-7.27 68.92,-19.83 -0.87,-0.03 -1.73,-0.08 -2.57,-0.14 -51.98,-3.79 -72.87,-60.47 -123.24,-60.97 z"
   id="path1278" />
		<path
   class="st8"
   d="m 113.58,211.56 c 50.37,0.5 71.26,57.18 123.24,60.97 0.84,0.06 1.7,0.1 2.57,0.14 6.16,-3.87 11.97,-8.24 17.4,-13.05 -8.97,1.86 -23.08,4.18 -38.69,-1.04 -3.33,-1.12 -8.38,-3.13 -30.98,-20.43 -25.96,-19.87 -29.98,-25.4 -42.87,-30.38 0,0 -12.53,-4.84 -27.94,-5.37 -24.22,-0.82 -45.35,10.44 -60.38,21.83 1.41,2.57 2.91,5.09 4.49,7.55 14.81,-11.4 32.83,-20.42 53.16,-20.22 z"
   id="path1280" />
		<path
   class="st9"
   d="m 279.11,252.35 c 11.3,-13.55 20.14,-29.22 25.83,-46.34 -5.92,4.98 -11.62,9.2 -17.07,12.75 -7.65,15.61 -18.27,29.47 -31.08,40.84 0.59,-0.12 1.16,-0.24 1.7,-0.36 7.5,-1.59 14.38,-4 20.62,-6.89 z"
   id="path1282" />
		<path
   class="st9"
   d="m 46.12,201.64 c -3.58,3.16 -6.94,6.39 -10.04,9.59 2.77,7.36 6.15,14.42 10.04,21.15 2.89,-2.61 6.17,-5.38 9.82,-8.14 -3.93,-7.16 -7.24,-14.71 -9.82,-22.6 z"
   id="path1284" />
		<path
   class="st9"
   d="m 239.39,272.66 c -20.02,12.57 -43.62,19.83 -68.92,19.83 -46.17,0 -86.73,-24.19 -110.05,-60.71 -3.39,2.61 -6.61,5.34 -9.65,8.12 25.54,38.42 69.21,63.75 118.81,63.75 34.89,0 66.86,-12.54 91.64,-33.35 -8.13,2.04 -15.42,2.61 -21.83,2.36 z"
   id="path1286" />
		<path
   class="st9"
   d="m 43.47,192.41 c -2.4,-9.64 -3.76,-19.7 -3.94,-30.05 -4.35,3.97 -8.34,8.02 -11.92,11.93 0.88,9.56 2.71,18.85 5.39,27.77 2.8,-2.84 6.33,-6.17 10.47,-9.65 z"
   id="path1288" />
		<path
   class="st9"
   d="m 39.84,150.55 c 0.74,-10.72 2.73,-21.1 5.85,-30.97 -5.91,4.55 -11.3,9.48 -16.12,14.36 -1.69,8.78 -2.58,17.84 -2.58,27.12 0,0.46 0.01,0.92 0.02,1.38 3.19,-3.32 7.53,-7.52 12.83,-11.89 z"
   id="path1290" />
	</g>
	<path
   class="st10"
   d="m 169.58,18.46 c -78.75,0 -142.6,63.84 -142.6,142.6 0,78.76 63.84,142.6 142.6,142.6 78.76,0 142.6,-63.84 142.6,-142.6 0,-78.76 -63.84,-142.6 -142.6,-142.6 z m 0.9,274.04 C 98.14,292.5 39.5,233.16 39.5,159.95 39.5,86.74 98.14,27.4 170.48,27.4 c 72.34,0 130.98,59.34 130.98,132.55 0,73.21 -58.65,132.55 -130.98,132.55 z"
   id="path1294" />
	<g
   class="st7"
   id="g1334">
		<g
   id="g1298">
			<text
   transform="translate(13.1494,187.5185)"
   class="st11 st4 st12"
   id="text1296">S</text>
		</g>
		<g
   id="g1326">
			<path
   class="st13"
   d="m 111.93,105.22 c -2,1.47 -3.55,1.07 -8.43,1.79 -4.31,0.63 -9.91,1.46 -10.21,3.32 -0.26,1.65 3.71,3.64 6.13,4.85 6.08,3.05 9.47,2.48 10.98,5.36 0.23,0.43 0.14,0.43 0.77,4.6 0.32,2.13 0.69,4.25 1.02,6.38 1.84,11.77 5.36,21.96 5.36,21.96 1.97,5.7 5.14,11.46 11.49,22.98 4.99,9.05 7.48,13.58 9.19,15.83 2.02,2.66 12.59,16.58 25.02,20.43 1.26,0.39 4.58,1.31 8.94,3.32 3.79,1.75 4.36,2.48 7.91,4.34 3.61,1.89 8.97,4.69 15.83,5.87 5.95,1.02 9.41,0.2 9.96,1.79 0.34,0.99 -1.38,2.8 -4.85,6.38 -3.05,3.15 -4.61,4.75 -6.38,5.62 -3.11,1.53 -5.94,1.53 -7.66,1.53 -2.42,0 -4.76,0.01 -6.64,-1.53 -1.29,-1.06 -1.05,-1.76 -2.3,-2.81 -1.08,-0.91 -2.5,-1.43 -6.64,-1.53 -4.98,-0.13 -7.47,-0.19 -9.91,0.85 -1.13,0.48 -5.99,2.55 -6.11,6.06 -0.01,0.19 -0.05,2.12 1.3,3.24 2.11,1.75 4.64,-0.95 8.3,0.4 2.69,0.99 3.24,3.16 5.39,2.95 1.28,-0.12 1.46,-0.94 2.82,-1.51 2.67,-1.12 4.28,1.05 9.19,2.04 4.69,0.95 5.69,-0.53 9.45,1.02 2.06,0.85 1.94,1.37 4.34,2.3 2.85,1.1 3.56,0.57 7.15,1.53 3.31,0.88 2.84,1.37 6.38,2.3 2.87,0.75 6.38,1.28 6.38,1.28 0,0 0.5,-2.45 1.53,-2.81 1.12,-0.39 3.35,1.5 4.09,3.83 0.64,2.03 -0.17,3.42 0.51,3.83 0.79,0.48 2.87,-0.78 3.83,-2.55 1.48,-2.72 0.18,-6.44 -1.53,-8.68 -2.65,-3.47 -6.94,-4.21 -9.19,-4.6 -5.87,-1.02 -9.83,0.85 -10.47,-0.51 -0.16,-0.35 -0.08,-0.85 3.32,-4.85 4.28,-5.03 5.19,-5.47 6.13,-5.62 1.59,-0.24 1.9,0.6 4.94,1.04 1.9,0.28 3.38,0.19 5.53,-0.02 6.82,-0.65 7.97,-1.23 12,-1.53 4.99,-0.37 7.48,-0.55 10.47,0.26 3.24,0.87 5.85,2.45 8.67,1.26 1.08,-0.45 1.48,-1.01 2.56,-1.01 2.35,0.01 3.15,2.69 4.85,2.55 1.55,-0.12 2.96,-2.52 3.06,-4.6 0.16,-3.28 -2.92,-6.29 -5.86,-6.92 -1.37,-0.29 -1.65,0.16 -6.65,1.05 -5.52,0.98 -6.16,0.61 -6.38,0.26 -0.39,-0.63 0.38,-1.52 2.04,-4.34 2.24,-3.79 1.85,-3.87 3.57,-6.64 2.33,-3.74 2.72,-3.08 4.6,-6.13 0.95,-1.54 3.26,-5.31 3.82,-10.14 0.16,-1.42 0.41,-4.95 0.41,-4.95 16.36,-10.98 20.54,-14.78 20.54,-14.78 8.1,-7.36 14.94,-16.46 15.06,-16.6 28.44,-0.52 35.74,-0.77 35.74,-0.77 24.92,-0.83 46.15,-1.62 46.47,-5.11 0.08,-0.89 -1.22,-1.7 -2.81,-2.55 -12.71,-6.85 -25.67,-7.12 -29.11,-7.15 -7.89,-0.08 -16.26,0.37 -32.68,1.28 -12.41,0.68 -16.04,0.98 -22.21,0 -7.28,-1.16 -12.88,-3.27 -19.66,-5.87 -9.41,-3.61 -9.31,-4.54 -20.17,-9.19 -13.1,-5.62 -19.65,-8.42 -27.57,-10.21 -3.77,-0.85 -8.43,-1.67 -14.04,-4.85 -4.17,-2.37 -6.76,-4.85 -8.68,-6.64 -2.68,-2.5 -13.49,-12.59 -21.52,-17.83 -10.74,-7.02 -21.4,-8.58 -26.23,-9.23 -6.76,-0.91 -16.82,-2.27 -27.06,2.55 -5.27,2.48 -10.04,4.73 -12.44,9.7 -1.12,2.29 -1.39,4.47 -3.65,6.13 z"
   id="path1300" />
			<g
   id="g1324">
				<path
   class="st14"
   d="m 263.41,231.6 c -1.47,-1.94 -3.8,-2.17 -4.21,-2.21 -0.67,-0.07 -1.46,0.09 -3.01,0.39 -2.68,0.53 -3.07,0.83 -4.71,1.12 -1.96,0.34 -3.48,0.27 -4.91,0.2 -1.02,-0.05 -2.25,-0.16 -3.62,-0.41 0.31,-0.46 0.58,-1.07 0.95,-1.85 0.85,-1.79 2.02,-3.4 2.88,-5.18 1.43,-2.95 2.49,-4.24 6.26,-9.52 2.16,-3.03 4.76,-8.39 6.47,-18.64 -1.94,0.92 -3.87,1.83 -5.81,2.75 -3.1,10.29 -4.69,13.85 -5.56,15.06 -1.45,2 -1.77,2.54 -2.44,3.59 -0.29,0.46 -0.53,0.87 -0.83,1.36 -0.05,0.08 -0.19,0.32 -0.4,0.66 -0.38,0.61 -0.8,1.25 -1.61,2.44 -2.13,3.18 -3.65,5.23 -4.42,6.68 -1.37,0.72 -2.57,1.08 -3.43,1.28 -0.98,0.22 -2.39,0.24 -5.21,0.27 -2.37,0.03 -3.03,-0.06 -3.8,-0.38 -1.09,-0.46 -1.1,-0.85 -2.1,-1.11 -1.08,-0.28 -2.07,-0.08 -2.75,0.16 -0.11,-0.03 -0.21,-0.05 -0.32,-0.07 -0.31,-0.05 -0.68,-0.03 -1.21,0.05 -0.62,0.79 -1.22,1.58 -1.85,2.37 -0.67,0.84 -1.35,1.66 -2.02,2.48 0.28,0.13 0.59,0.23 0.96,0.25 0.58,0.04 0.99,-0.11 1.42,-0.34 0.04,0.2 0.11,0.4 0.19,0.6 0.47,1.06 1.46,1.66 1.58,1.55 0.1,-0.09 -0.47,-0.66 -0.7,-1.76 -0.05,-0.24 -0.11,-0.55 -0.12,-0.89 0.07,-0.03 0.13,-0.07 0.21,-0.1 0.06,-0.03 0.13,-0.05 0.19,-0.07 0.04,0 0.07,0 0.1,0.01 1.01,0.03 1.65,-0.12 2.25,-0.28 0.13,0.14 0.33,0.33 0.6,0.57 1.2,1.05 4.53,0.85 4.53,0.85 5.73,-0.21 5.37,0.03 7.99,-0.29 1.76,-0.22 2.91,-0.37 3.77,-0.66 0.34,0.27 0.74,0.53 1.21,0.76 0.75,0.37 1.56,0.6 3.57,0.76 2.59,0.2 2.73,-0.06 4.98,0.1 2.24,0.16 3.35,0.24 4.46,0.55 0.54,0.15 1.74,0.52 3.15,0.22 0.8,-0.17 1.02,-0.42 1.11,-0.58 0.42,-0.75 -0.52,-1.81 -0.18,-2.21 0.22,-0.26 0.83,-0.04 1.61,0.26 2.26,0.87 3.39,1.31 3.78,1.67 1.55,1.45 1.4,3.49 1.69,3.45 0.38,-0.02 1.15,-3.48 -0.69,-5.91 z"
   id="path1302" />
				<path
   class="st15"
   d="m 134.66,146.38 c -4.25,-4.53 -5.66,-8.31 -10.94,-17.36 -2.7,-4.63 -6.14,-10.14 -10.38,-16.21 -1.07,4.7 -0.65,8.8 -0.2,12.05 3.1,22.37 12.52,41.83 17.96,51.85 1.55,-0.88 3.2,-1.93 4.91,-3.2 1.57,-1.17 4.8,-3.74 11.27,-11.61 1.71,-2.08 2.97,-3.7 3.95,-5.03 -7.5,-2.66 -12.78,-6.46 -16.57,-10.49 z"
   id="path1304" />
				<path
   class="st16"
   d="m 190.03,106.67 c -7.39,-5.56 -11.09,-8.33 -16.17,-10.84 -3.68,-1.82 -11.84,-5.75 -23.09,-6.53 -7.84,-0.54 -18.32,-1.26 -27.17,5.64 -6.58,5.13 -9.01,11.94 -9.54,13.53 -0.28,0.84 -0.5,1.65 -0.69,2.46 4.42,6.25 7.99,11.92 10.81,16.69 5.51,9.32 6.97,13.21 11.4,17.87 3.94,4.15 9.44,8.06 17.28,10.8 3.12,-4.16 3.65,-5.57 6.86,-8.96 3.62,-3.82 7.4,-6.33 14.97,-11.37 7.95,-5.29 14.65,-8.93 23.16,-13.52 2.69,-1.45 5.1,-2.72 7.12,-3.77 -3.82,-2.7 -6.41,-5.59 -14.94,-12 z"
   id="path1306" />
				<path
   class="st14"
   d="m 210.48,226.51 c -1.14,1.63 -2.98,4.06 -5.62,6.73 -0.91,0.92 -1.54,1.51 -3.32,3.12 -3.5,3.18 -5.93,5.19 -7.26,6.7 -1.88,0.47 -3.46,0.56 -4.58,0.55 -1.26,-0.01 -3.01,-0.39 -6.49,-1.15 -2.93,-0.64 -3.73,-0.93 -4.58,-1.53 -1.21,-0.85 -1.13,-1.32 -2.29,-1.91 -1.25,-0.63 -2.53,-0.68 -3.44,-0.59 -0.12,-0.06 -0.25,-0.12 -0.38,-0.18 -0.6,-0.24 -1.42,-0.29 -3.05,-0.38 -2.69,-0.15 -4.06,-0.21 -5.35,0.38 -0.3,0.14 -0.85,0.41 -1.4,0.88 -1.03,-0.03 -1.94,0.14 -2.8,0.65 -2.19,1.28 -2.89,4.06 -2.67,4.2 0.16,0.1 0.82,-1.27 2.67,-2.29 0.54,-0.3 1.01,-0.55 1.5,-0.68 -0.61,1.64 -0.25,3.31 0.03,3.35 0.31,0.05 0.35,-1.9 1.59,-3.23 1.02,0.48 1.53,1.64 2.99,2.08 0.7,0.21 1.25,0.14 1.84,0 0,0.25 0.02,0.51 0.07,0.76 0.29,1.39 1.35,2.38 1.53,2.29 0.15,-0.08 -0.4,-0.92 -0.38,-2.29 0,-0.3 0.01,-0.69 0.1,-1.09 0.09,-0.02 0.18,-0.04 0.28,-0.06 0.09,-0.01 0.17,-0.02 0.25,-0.04 0.04,0.01 0.08,0.02 0.13,0.04 1.23,0.32 2.06,0.32 2.85,0.3 0.12,0.2 0.31,0.48 0.58,0.84 1.2,1.58 5.35,2.29 5.35,2.29 7.13,1.37 6.61,1.56 9.93,1.91 2.23,0.24 3.69,0.39 4.82,0.28 0.35,0.41 0.77,0.84 1.29,1.25 0.82,0.65 1.76,1.15 4.2,1.91 3.14,0.97 3.39,0.7 6.11,1.53 2.71,0.82 4.07,1.23 5.35,1.91 0.63,0.33 2,1.1 3.82,1.15 1.03,0.02 1.37,-0.21 1.53,-0.38 0.72,-0.78 -0.15,-2.3 0.38,-2.67 0.35,-0.24 1.03,0.19 1.91,0.76 2.55,1.68 3.82,2.52 4.2,3.05 1.51,2.16 0.78,4.55 1.15,4.58 0.47,0.05 2.37,-3.85 0.76,-7.26 -1.28,-2.72 -4.09,-3.66 -4.58,-3.82 -0.81,-0.27 -1.82,-0.31 -3.82,-0.38 -3.45,-0.12 -4.01,0.12 -6.11,0 -2.51,-0.15 -4.37,-0.66 -6.11,-1.15 -1.25,-0.35 -2.73,-0.83 -4.35,-1.5 0.51,-0.46 1.01,-1.11 1.68,-1.93 1.54,-1.88 3.41,-3.47 4.96,-5.35 3.04,-3.67 6.76,-6 10.31,-9.55 1.52,-1.52 3.66,-3.8 6.01,-6.85 -1.61,0.93 -4.1,2.08 -7.32,2.55 -1.62,0.28 -3.06,0.3 -4.27,0.22 z"
   id="path1308" />
				<path
   class="st17"
   d="m 115.67,109.06 c 0,0 -7.36,-1.19 -15.01,0.2 -3.63,0.66 -4.22,1.33 -4.27,1.8 -0.06,0.54 0.55,1.07 2.42,2.23 2.64,1.63 3.96,2.45 6.27,3.35 4.94,1.92 4.3,0.84 7.67,2.44 0.81,0.38 2.38,1.18 3.26,0.54 0.56,-0.41 0.45,-1.11 1.02,-1.36 0.93,-0.41 2.15,1.05 2.47,0.82 0.25,-0.18 -0.13,-1.39 -2.47,-5.41 0.01,-0.01 -0.2,-0.58 -1.36,-4.61 z"
   id="path1310" />
				<path
   class="st13"
   d="m 134.06,114.17 c 1.69,-3.11 4.72,-4.21 5.79,-4.6 5.3,-1.93 9.91,0.74 10.38,1.02 1.01,0.61 5.02,3.01 5.45,7.49 0.32,3.36 -1.56,5.83 -2.04,6.47 -3.01,3.96 -7.88,4.2 -9.02,4.26 -1.54,0.08 -5.62,0.28 -8.68,-2.72 -3.09,-3.02 -3.95,-8.13 -1.88,-11.92 z"
   id="path1312" />
				<circle
   class="st18"
   cx="143.59"
   cy="118.47"
   r="6.8200002"
   id="circle1314" />
				<circle
   class="st13"
   cx="143.59"
   cy="118.29"
   r="2.4200001"
   id="circle1316" />
				<path
   class="st19"
   d="m 222.06,182.84 c -19.26,-0.44 -15.03,-2.97 -43.23,-5.45 -3.9,-0.34 -8.22,-0.67 -12.94,-3.4 -7.05,-4.1 -10.63,-11.07 -12.49,-16.24 -1,1.32 -2.24,2.9 -3.91,4.9 -6.75,8.1 -10.11,10.74 -11.75,11.95 -1.78,1.31 -3.5,2.39 -5.11,3.29 0.53,0.97 1.04,1.86 1.49,2.66 4.3,7.55 6.61,10.55 8.51,12.77 5.58,6.5 12.34,11.67 22.81,17.02 21.63,11.06 36.06,18.44 52.43,13.62 11.02,-3.24 23.01,-12.04 26.65,-17.7 0.31,-0.49 1.49,-2.39 3.56,-4.52 3.88,-3.99 7.96,-5.77 9.28,-6.37 7.2,-3.3 14.25,-9.34 23.97,-17.68 1.62,-1.39 3.27,-2.8 4.87,-4.22 -8.19,2.79 -18.56,5.66 -30.76,7.49 -14.89,2.25 -26.32,2.04 -33.38,1.88 z"
   id="path1318" />
				<path
   class="st20"
   d="m 368.02,155.21 c -2.14,-0.67 -3.87,-0.92 -4.55,-1.01 -13.3,-1.72 -23.77,-0.98 -23.77,-0.98 -12.56,0.89 -25.18,0.05 -37.76,0.17 -3.87,0.04 -7.39,0.07 -10.48,0.09 -1.53,-0.31 -3.35,-0.65 -5.46,-1.15 -5.84,-1.4 -5.66,-2.06 -23.84,-9.92 -17.15,-7.41 -25.73,-11.11 -34.9,-14.13 -9.73,-3.21 -11.7,-3.2 -16.94,-6.06 -1.51,-0.82 -2.73,-1.58 -3.84,-2.35 -2.01,1.03 -4.39,2.27 -7.06,3.69 -8.43,4.49 -15.07,8.05 -22.94,13.21 -7.5,4.92 -11.24,7.38 -14.83,11.11 -3.24,3.37 -3.73,4.76 -7,9.02 1.84,5.05 5.39,11.86 12.37,15.86 4.67,2.67 8.95,2.99 12.81,3.33 27.93,2.42 23.74,4.89 42.82,5.32 7,0.16 18.32,0.36 33.04,-1.83 12.08,-1.8 22.35,-4.6 30.46,-7.32 4.06,-3.53 7.78,-7.05 9.88,-10.11 56.5,-1.97 76.88,-3.52 76.87,-4.75 0.01,-0.54 -3.51,-1.77 -4.88,-2.19 z"
   id="path1320" />
				<path
   class="st21"
   d="m 128.27,107.87 c -0.42,-0.99 5.73,-6.08 13.62,-6.81 3,-0.28 7.15,-0.01 13.62,3.06 15.88,7.54 24.92,22.11 24.17,22.81 -0.48,0.45 -4.81,-4.97 -16,-12.6 -7.77,-5.29 -11.76,-7.96 -17.36,-8.85 -10.1,-1.6 -17.6,3.45 -18.05,2.39 z"
   id="path1322" />
			</g>
		</g>
		<g
   id="g1332">
			<rect
   x="-54.18"
   y="160.71001"
   class="st2"
   width="490.26001"
   height="88.25"
   id="rect1328" />
			<text
   transform="translate(93.1135,221.9185)"
   class="st22 st4 st23"
   id="text1330"> I L I C</text>
		</g>
	</g>
</g>
<g
   class="st6"
   id="g1410"
   transform="translate(-115.37,-352.25442)">
	<g
   class="st7"
   id="g1368">
		<path
   class="st8"
   d="m 293.04,124.86 c -8.82,1.88 -23.76,4.89 -40.39,-0.68 -3.33,-1.12 -8.38,-3.13 -30.98,-20.43 -25.96,-19.87 -29.98,-25.4 -42.87,-30.38 0,0 -11.24,-4.34 -25.52,-5.25 -4.37,2.88 -8.56,6.01 -12.55,9.39 2.43,-0.24 4.9,-0.37 7.4,-0.35 50.37,0.5 71.26,57.18 123.24,60.97 16.39,1.19 38.97,-2.65 67.31,-24.09 -1.56,-2.79 -3.22,-5.52 -4.97,-8.18 -10.41,7.9 -24,15.44 -40.67,19 z"
   id="path1338" />
		<path
   class="st8"
   d="m 150.87,68 c 0.82,0.03 1.62,0.07 2.42,0.12 20.53,-13.53 45.04,-21.4 71.37,-21.4 45.51,0 85.59,23.49 109.06,59.14 2.74,-2.08 5.26,-4.18 7.57,-6.24 -25.71,-37.34 -68.75,-61.83 -117.52,-61.83 -33.83,0 -64.9,11.79 -89.35,31.47 5.28,-0.98 10.78,-1.45 16.45,-1.26 z"
   id="path1340" />
		<path
   class="st8"
   d="m 297.99,166.33 c -8.82,1.88 -23.76,4.89 -40.39,-0.68 -3.33,-1.12 -8.38,-3.13 -30.98,-20.43 -25.96,-19.87 -29.98,-25.4 -42.87,-30.38 0,0 -12.53,-4.84 -27.94,-5.37 -19.27,-0.65 -36.58,6.35 -50.43,14.97 -2.11,4.68 -3.96,9.51 -5.52,14.46 14.82,-11.43 32.86,-20.48 53.22,-20.28 50.37,0.5 71.26,57.18 123.24,60.97 18,1.31 43.45,-3.47 75.8,-30.91 -0.82,-3.52 -1.79,-6.98 -2.88,-10.38 -11.05,10.57 -28.2,23.1 -51.25,28.03 z"
   id="path1342" />
		<path
   class="st8"
   d="m 140.74,77.51 c -7.32,0.73 -14.32,2.6 -20.93,5.28 -14.5,15.44 -25.59,34.1 -32.1,54.8 4.94,-4.3 10.89,-8.92 17.68,-13.15 8.19,-18.22 20.34,-34.25 35.35,-46.93 z"
   id="path1344" />
		<path
   class="st8"
   d="m 357.17,130 c -2.93,-7.75 -6.5,-15.18 -10.67,-22.22 -2.65,2.23 -5.26,4.32 -7.81,6.26 4.28,7.65 7.82,15.77 10.55,24.27 3.14,-3.01 5.78,-5.85 7.93,-8.31 z"
   id="path1346" />
		<path
   class="st8"
   d="m 93.71,181.69 c 16.3,-14.85 37.73,-28.43 62.62,-28.18 50.37,0.5 71.26,57.18 123.24,60.97 18.04,1.31 43.56,-3.49 76,-31.08 0.04,-1.37 0.07,-2.74 0.07,-4.12 0,-2.99 -0.11,-5.96 -0.3,-8.9 -10.84,11.04 -28.96,25.46 -54.1,30.83 -8.82,1.88 -23.76,4.89 -40.39,-0.68 -3.33,-1.12 -8.38,-3.13 -30.98,-20.43 -25.96,-19.87 -29.98,-25.4 -42.87,-30.38 0,0 -12.53,-4.84 -27.94,-5.37 -26.84,-0.91 -49.89,13.02 -65.04,25.52 -0.22,3.11 -0.34,6.24 -0.34,9.4 0,0.81 0.01,1.61 0.03,2.42 z"
   id="path1348" />
		<path
   class="st8"
   d="m 365.2,162.39 c -0.93,-7.34 -2.4,-14.51 -4.4,-21.46 -2.95,2.78 -5.84,5.35 -8.69,7.76 1.64,7.03 2.72,14.28 3.21,21.69 3.56,-3.62 6.34,-6.89 8.32,-9.34 0.53,0.44 1.05,0.89 1.56,1.35 z"
   id="path1350" />
		<path
   class="st8"
   d="m 160.87,194.62 c 50.37,0.5 71.26,57.18 123.24,60.97 14.54,1.06 33.96,-1.86 57.93,-17.49 2.63,-5.36 4.91,-10.92 6.81,-16.66 -10.7,8.56 -25.09,17.03 -43.08,20.87 -8.82,1.88 -23.76,4.89 -40.39,-0.68 -3.33,-1.12 -8.38,-3.13 -30.98,-20.43 -25.96,-19.87 -29.98,-25.4 -42.87,-30.38 0,0 -12.53,-4.84 -27.94,-5.37 -27.39,-0.93 -50.82,13.59 -65.95,26.28 0.78,3.12 1.66,6.2 2.65,9.22 16.04,-14.1 36.72,-26.57 60.58,-26.33 z"
   id="path1352" />
		<path
   class="st8"
   d="m 363.81,207.29 c 1.66,-8.71 2.55,-17.7 2.55,-26.9 0,-2.22 -0.07,-4.43 -0.17,-6.63 -3.62,3.48 -7.16,6.69 -10.62,9.64 -0.4,13.26 -2.73,26.04 -6.71,38.04 6.24,-5 11.23,-10.01 14.95,-14.15 z"
   id="path1354" />
		<path
   class="st8"
   d="m 167.76,230.88 c 50.37,0.5 71.26,57.18 123.24,60.97 0.84,0.06 1.7,0.1 2.57,0.14 6.16,-3.87 11.97,-8.24 17.4,-13.05 -8.97,1.86 -23.08,4.18 -38.69,-1.04 -3.33,-1.12 -8.38,-3.13 -30.98,-20.43 -25.96,-19.87 -29.98,-25.4 -42.87,-30.38 0,0 -12.53,-4.84 -27.94,-5.37 -24.22,-0.82 -45.35,10.44 -60.38,21.83 1.41,2.57 2.91,5.09 4.49,7.55 14.81,-11.39 32.83,-20.42 53.16,-20.22 z"
   id="path1356" />
		<path
   class="st8"
   d="m 333.29,271.68 c 11.3,-13.55 20.14,-29.22 25.83,-46.34 -5.92,4.98 -11.62,9.2 -17.07,12.75 -7.65,15.61 -18.27,29.47 -31.08,40.84 0.59,-0.12 1.16,-0.24 1.7,-0.36 7.5,-1.59 14.37,-4.01 20.62,-6.89 z"
   id="path1358" />
		<path
   class="st8"
   d="m 100.3,220.96 c -3.58,3.16 -6.94,6.39 -10.04,9.59 2.77,7.36 6.15,14.42 10.04,21.15 2.89,-2.61 6.17,-5.38 9.82,-8.14 -3.93,-7.16 -7.24,-14.71 -9.82,-22.6 z"
   id="path1360" />
		<path
   class="st8"
   d="m 293.57,291.99 c -20.02,12.57 -43.62,19.83 -68.92,19.83 -46.17,0 -86.73,-24.19 -110.05,-60.71 -3.39,2.61 -6.61,5.34 -9.65,8.12 25.54,38.42 69.21,63.75 118.81,63.75 34.89,0 66.86,-12.54 91.64,-33.35 -8.14,2.03 -15.42,2.6 -21.83,2.36 z"
   id="path1362" />
		<path
   class="st8"
   d="m 97.65,211.74 c -2.4,-9.64 -3.76,-19.7 -3.94,-30.05 -4.35,3.97 -8.34,8.02 -11.92,11.93 0.88,9.56 2.71,18.85 5.39,27.77 2.8,-2.84 6.32,-6.18 10.47,-9.65 z"
   id="path1364" />
		<path
   class="st8"
   d="m 94.02,169.87 c 0.74,-10.72 2.73,-21.1 5.85,-30.97 -5.91,4.55 -11.3,9.48 -16.12,14.36 -1.69,8.78 -2.58,17.84 -2.58,27.12 0,0.46 0.01,0.92 0.02,1.38 3.19,-3.32 7.53,-7.52 12.83,-11.89 z"
   id="path1366" />
	</g>
	<g
   class="st7"
   id="g1408">
		<g
   id="g1372">
			<text
   transform="translate(69.2923,206.8423)"
   class="st24 st25 st26"
   id="text1370">S</text>
		</g>
		<g
   id="g1400">
			<path
   class="st13"
   d="m 166.1,124.54 c -2,1.47 -3.55,1.07 -8.43,1.79 -4.31,0.63 -9.91,1.46 -10.21,3.32 -0.26,1.65 3.71,3.64 6.13,4.85 6.08,3.05 9.47,2.48 10.98,5.36 0.23,0.43 0.14,0.43 0.77,4.6 0.32,2.13 0.69,4.25 1.02,6.38 1.84,11.77 5.36,21.96 5.36,21.96 1.97,5.7 5.14,11.46 11.49,22.98 4.99,9.05 7.48,13.58 9.19,15.83 2.02,2.66 12.59,16.58 25.02,20.43 1.26,0.39 4.58,1.31 8.94,3.32 3.79,1.75 4.36,2.48 7.91,4.34 3.61,1.89 8.97,4.69 15.83,5.87 5.95,1.02 9.41,0.2 9.96,1.79 0.34,0.99 -1.38,2.8 -4.85,6.38 -3.05,3.15 -4.61,4.75 -6.38,5.62 -3.11,1.53 -5.94,1.53 -7.66,1.53 -2.42,0 -4.76,0.01 -6.64,-1.53 -1.29,-1.06 -1.05,-1.76 -2.3,-2.81 -1.08,-0.91 -2.5,-1.43 -6.64,-1.53 -4.98,-0.13 -7.47,-0.19 -9.91,0.85 -1.13,0.48 -5.99,2.55 -6.11,6.06 -0.01,0.19 -0.05,2.12 1.3,3.24 2.11,1.75 4.64,-0.95 8.3,0.4 2.69,0.99 3.24,3.16 5.39,2.95 1.28,-0.12 1.46,-0.94 2.82,-1.51 2.67,-1.12 4.28,1.05 9.19,2.04 4.69,0.95 5.69,-0.53 9.45,1.02 2.06,0.85 1.94,1.37 4.34,2.3 2.85,1.1 3.56,0.57 7.15,1.53 3.31,0.88 2.84,1.37 6.38,2.3 2.87,0.75 6.38,1.28 6.38,1.28 0,0 0.5,-2.45 1.53,-2.81 1.12,-0.39 3.35,1.5 4.09,3.83 0.64,2.03 -0.17,3.42 0.51,3.83 0.79,0.48 2.87,-0.78 3.83,-2.55 1.48,-2.72 0.18,-6.44 -1.53,-8.68 -2.65,-3.47 -6.94,-4.21 -9.19,-4.6 -5.87,-1.02 -9.83,0.85 -10.47,-0.51 -0.16,-0.35 -0.08,-0.85 3.32,-4.85 4.28,-5.03 5.19,-5.47 6.13,-5.62 1.59,-0.24 1.9,0.6 4.94,1.04 1.9,0.28 3.38,0.19 5.53,-0.02 6.82,-0.65 7.97,-1.23 12,-1.53 4.99,-0.37 7.48,-0.55 10.47,0.26 3.24,0.87 5.85,2.45 8.67,1.26 1.08,-0.45 1.48,-1.01 2.56,-1.01 2.35,0.01 3.15,2.69 4.85,2.55 1.55,-0.12 2.96,-2.52 3.06,-4.6 0.16,-3.28 -2.92,-6.29 -5.86,-6.92 -1.37,-0.29 -1.65,0.16 -6.65,1.05 -5.52,0.98 -6.16,0.61 -6.38,0.26 -0.39,-0.63 0.38,-1.52 2.04,-4.34 2.24,-3.79 1.85,-3.87 3.57,-6.64 2.33,-3.74 2.72,-3.08 4.6,-6.13 0.95,-1.54 3.26,-5.31 3.82,-10.14 0.16,-1.42 0.41,-4.95 0.41,-4.95 16.36,-10.98 20.54,-14.78 20.54,-14.78 8.1,-7.36 14.94,-16.46 15.06,-16.6 28.44,-0.52 35.74,-0.77 35.74,-0.77 24.92,-0.83 46.15,-1.62 46.47,-5.11 0.08,-0.89 -1.22,-1.7 -2.81,-2.55 -12.71,-6.85 -25.67,-7.12 -29.11,-7.15 -7.89,-0.08 -16.26,0.37 -32.68,1.28 -12.41,0.68 -16.04,0.98 -22.21,0 -7.28,-1.16 -12.88,-3.27 -19.66,-5.87 -9.41,-3.61 -9.31,-4.54 -20.17,-9.19 -13.1,-5.62 -19.65,-8.42 -27.57,-10.21 -3.77,-0.85 -8.43,-1.67 -14.04,-4.85 -4.17,-2.37 -6.76,-4.85 -8.68,-6.64 -2.68,-2.5 -13.49,-12.59 -21.52,-17.83 -10.74,-7.02 -21.4,-8.58 -26.23,-9.23 -6.76,-0.91 -16.82,-2.27 -27.06,2.55 -5.27,2.48 -10.04,4.73 -12.44,9.7 -1.11,2.29 -1.38,4.47 -3.65,6.13 z"
   id="path1374" />
			<g
   id="g1398">
				<path
   class="st14"
   d="m 317.59,250.92 c -1.47,-1.94 -3.8,-2.17 -4.21,-2.21 -0.67,-0.07 -1.46,0.09 -3.01,0.39 -2.68,0.53 -3.07,0.83 -4.71,1.12 -1.96,0.34 -3.48,0.27 -4.91,0.2 -1.02,-0.05 -2.25,-0.16 -3.62,-0.41 0.31,-0.46 0.58,-1.07 0.95,-1.85 0.85,-1.79 2.02,-3.4 2.88,-5.18 1.43,-2.95 2.49,-4.24 6.26,-9.52 2.16,-3.03 4.76,-8.39 6.47,-18.64 -1.94,0.92 -3.87,1.83 -5.81,2.75 -3.1,10.29 -4.69,13.85 -5.56,15.06 -1.45,2 -1.77,2.54 -2.44,3.59 -0.29,0.46 -0.53,0.87 -0.83,1.36 -0.05,0.08 -0.19,0.32 -0.4,0.66 -0.38,0.61 -0.8,1.25 -1.61,2.44 -2.13,3.18 -3.65,5.23 -4.42,6.68 -1.37,0.72 -2.57,1.08 -3.43,1.28 -0.98,0.22 -2.39,0.24 -5.21,0.27 -2.37,0.03 -3.03,-0.06 -3.8,-0.38 -1.09,-0.46 -1.1,-0.85 -2.1,-1.11 -1.08,-0.28 -2.07,-0.08 -2.75,0.16 -0.11,-0.03 -0.21,-0.05 -0.32,-0.07 -0.31,-0.05 -0.68,-0.03 -1.21,0.05 -0.62,0.79 -1.22,1.58 -1.85,2.37 -0.67,0.84 -1.35,1.66 -2.02,2.48 0.28,0.13 0.59,0.23 0.96,0.25 0.58,0.04 0.99,-0.11 1.42,-0.34 0.04,0.2 0.11,0.4 0.19,0.6 0.47,1.06 1.46,1.66 1.58,1.55 0.1,-0.09 -0.47,-0.66 -0.7,-1.76 -0.05,-0.24 -0.11,-0.55 -0.12,-0.89 0.07,-0.03 0.13,-0.07 0.21,-0.1 0.06,-0.03 0.13,-0.05 0.19,-0.07 0.04,0 0.07,0 0.1,0.01 1.01,0.03 1.65,-0.12 2.25,-0.28 0.13,0.14 0.33,0.33 0.6,0.57 1.2,1.05 4.53,0.85 4.53,0.85 5.73,-0.21 5.37,0.03 7.99,-0.29 1.76,-0.22 2.91,-0.37 3.77,-0.66 0.34,0.27 0.74,0.53 1.21,0.76 0.75,0.37 1.56,0.6 3.57,0.76 2.59,0.2 2.73,-0.06 4.98,0.1 2.24,0.16 3.35,0.24 4.46,0.55 0.54,0.15 1.74,0.52 3.15,0.22 0.8,-0.17 1.02,-0.42 1.11,-0.58 0.42,-0.75 -0.52,-1.81 -0.18,-2.21 0.22,-0.26 0.83,-0.04 1.61,0.26 2.26,0.87 3.39,1.31 3.78,1.67 1.55,1.45 1.4,3.49 1.69,3.45 0.37,-0.02 1.15,-3.48 -0.69,-5.91 z"
   id="path1376" />
				<path
   class="st15"
   d="m 188.84,165.7 c -4.25,-4.53 -5.66,-8.31 -10.94,-17.36 -2.7,-4.63 -6.14,-10.14 -10.38,-16.21 -1.07,4.7 -0.65,8.8 -0.2,12.05 3.1,22.37 12.52,41.83 17.96,51.85 1.55,-0.88 3.2,-1.93 4.91,-3.2 1.57,-1.17 4.8,-3.74 11.27,-11.61 1.71,-2.08 2.97,-3.7 3.95,-5.03 -7.51,-2.65 -12.78,-6.45 -16.57,-10.49 z"
   id="path1378" />
				<path
   class="st16"
   d="m 244.21,125.99 c -7.39,-5.56 -11.09,-8.33 -16.17,-10.84 -3.68,-1.82 -11.84,-5.75 -23.09,-6.53 -7.84,-0.54 -18.32,-1.26 -27.17,5.64 -6.58,5.13 -9.01,11.94 -9.54,13.53 -0.28,0.84 -0.5,1.65 -0.69,2.46 4.42,6.25 7.99,11.92 10.81,16.69 5.51,9.32 6.97,13.21 11.4,17.87 3.94,4.15 9.44,8.06 17.28,10.8 3.12,-4.16 3.65,-5.57 6.86,-8.96 3.62,-3.82 7.4,-6.33 14.97,-11.37 7.95,-5.29 14.65,-8.93 23.16,-13.52 2.69,-1.45 5.1,-2.72 7.12,-3.77 -3.82,-2.7 -6.42,-5.59 -14.94,-12 z"
   id="path1380" />
				<path
   class="st14"
   d="m 264.66,245.83 c -1.14,1.63 -2.98,4.06 -5.62,6.73 -0.91,0.92 -1.54,1.51 -3.32,3.12 -3.5,3.18 -5.93,5.19 -7.26,6.7 -1.88,0.47 -3.46,0.56 -4.58,0.55 -1.26,-0.01 -3.01,-0.39 -6.49,-1.15 -2.93,-0.64 -3.73,-0.93 -4.58,-1.53 -1.21,-0.85 -1.13,-1.32 -2.29,-1.91 -1.25,-0.63 -2.53,-0.68 -3.44,-0.59 -0.12,-0.06 -0.25,-0.12 -0.38,-0.18 -0.6,-0.24 -1.42,-0.29 -3.05,-0.38 -2.69,-0.15 -4.06,-0.21 -5.35,0.38 -0.3,0.14 -0.85,0.41 -1.4,0.88 -1.03,-0.03 -1.94,0.14 -2.8,0.65 -2.19,1.28 -2.89,4.06 -2.67,4.2 0.16,0.1 0.82,-1.27 2.67,-2.29 0.54,-0.3 1.01,-0.55 1.5,-0.68 -0.61,1.64 -0.25,3.31 0.03,3.35 0.31,0.05 0.35,-1.9 1.59,-3.23 1.02,0.48 1.53,1.64 2.99,2.08 0.7,0.21 1.25,0.14 1.84,0 0,0.25 0.02,0.51 0.07,0.76 0.29,1.39 1.35,2.38 1.53,2.29 0.15,-0.08 -0.4,-0.92 -0.38,-2.29 0,-0.3 0.01,-0.69 0.1,-1.09 0.09,-0.02 0.18,-0.04 0.28,-0.06 0.09,-0.01 0.17,-0.02 0.25,-0.04 0.04,0.01 0.08,0.02 0.13,0.04 1.23,0.32 2.06,0.32 2.85,0.3 0.12,0.2 0.31,0.48 0.58,0.84 1.2,1.58 5.35,2.29 5.35,2.29 7.13,1.37 6.61,1.56 9.93,1.91 2.23,0.24 3.69,0.39 4.82,0.28 0.35,0.41 0.77,0.84 1.29,1.25 0.82,0.65 1.76,1.15 4.2,1.91 3.14,0.97 3.39,0.7 6.11,1.53 2.71,0.82 4.07,1.23 5.35,1.91 0.63,0.33 2,1.1 3.82,1.15 1.03,0.02 1.37,-0.21 1.53,-0.38 0.72,-0.78 -0.15,-2.3 0.38,-2.67 0.35,-0.24 1.03,0.19 1.91,0.76 2.55,1.68 3.82,2.52 4.2,3.05 1.51,2.16 0.78,4.55 1.15,4.58 0.47,0.05 2.37,-3.85 0.76,-7.26 -1.28,-2.72 -4.09,-3.66 -4.58,-3.82 -0.81,-0.27 -1.82,-0.31 -3.82,-0.38 -3.45,-0.12 -4.01,0.12 -6.11,0 -2.51,-0.15 -4.37,-0.66 -6.11,-1.15 -1.25,-0.35 -2.73,-0.83 -4.35,-1.5 0.51,-0.46 1.01,-1.11 1.68,-1.93 1.54,-1.88 3.41,-3.47 4.96,-5.35 3.04,-3.67 6.76,-6 10.31,-9.55 1.52,-1.52 3.66,-3.8 6.01,-6.85 -1.61,0.93 -4.1,2.08 -7.32,2.55 -1.62,0.29 -3.07,0.3 -4.27,0.22 z"
   id="path1382" />
				<path
   class="st17"
   d="m 169.85,128.39 c 0,0 -7.36,-1.19 -15.01,0.2 -3.63,0.66 -4.22,1.33 -4.27,1.8 -0.06,0.54 0.55,1.07 2.42,2.23 2.64,1.63 3.96,2.45 6.27,3.35 4.94,1.92 4.3,0.84 7.67,2.44 0.81,0.38 2.38,1.18 3.26,0.54 0.56,-0.41 0.45,-1.11 1.02,-1.36 0.93,-0.41 2.15,1.05 2.47,0.82 0.25,-0.18 -0.13,-1.39 -2.47,-5.41 0,-0.02 -0.2,-0.59 -1.36,-4.61 z"
   id="path1384" />
				<path
   class="st13"
   d="m 188.23,133.49 c 1.69,-3.11 4.72,-4.21 5.79,-4.6 5.3,-1.93 9.91,0.74 10.38,1.02 1.01,0.61 5.02,3.01 5.45,7.49 0.32,3.36 -1.56,5.83 -2.04,6.47 -3.01,3.96 -7.88,4.2 -9.02,4.26 -1.54,0.08 -5.62,0.28 -8.68,-2.72 -3.08,-3.02 -3.94,-8.12 -1.88,-11.92 z"
   id="path1386" />
				<circle
   class="st18"
   cx="197.77"
   cy="137.78999"
   r="6.8200002"
   id="circle1388" />
				<circle
   class="st13"
   cx="197.77"
   cy="137.62"
   r="2.4200001"
   id="circle1390" />
				<path
   class="st19"
   d="m 276.23,202.16 c -19.26,-0.44 -15.03,-2.97 -43.23,-5.45 -3.9,-0.34 -8.22,-0.67 -12.94,-3.4 -7.05,-4.1 -10.63,-11.07 -12.49,-16.24 -1,1.32 -2.24,2.9 -3.91,4.9 -6.75,8.1 -10.11,10.74 -11.75,11.95 -1.78,1.31 -3.5,2.39 -5.11,3.29 0.53,0.97 1.04,1.86 1.49,2.66 4.3,7.55 6.61,10.55 8.51,12.77 5.58,6.5 12.34,11.67 22.81,17.02 21.63,11.06 36.06,18.44 52.43,13.62 11.02,-3.24 23.01,-12.04 26.65,-17.7 0.31,-0.49 1.49,-2.39 3.56,-4.52 3.88,-3.99 7.96,-5.77 9.28,-6.37 7.2,-3.3 14.25,-9.34 23.97,-17.68 1.62,-1.39 3.27,-2.8 4.87,-4.22 -8.19,2.79 -18.56,5.66 -30.76,7.49 -14.88,2.25 -26.31,2.04 -33.38,1.88 z"
   id="path1392" />
				<path
   class="st20"
   d="m 422.2,174.53 c -2.14,-0.67 -3.87,-0.92 -4.55,-1.01 -13.3,-1.72 -23.77,-0.98 -23.77,-0.98 -12.56,0.89 -25.18,0.05 -37.76,0.17 -3.87,0.04 -7.39,0.07 -10.48,0.09 -1.53,-0.31 -3.35,-0.65 -5.46,-1.15 -5.84,-1.4 -5.66,-2.06 -23.84,-9.92 -17.15,-7.41 -25.73,-11.11 -34.9,-14.13 -9.73,-3.21 -11.7,-3.2 -16.94,-6.06 -1.51,-0.82 -2.73,-1.58 -3.84,-2.35 -2.01,1.03 -4.39,2.27 -7.06,3.69 -8.43,4.49 -15.07,8.05 -22.94,13.21 -7.5,4.92 -11.24,7.38 -14.83,11.11 -3.24,3.37 -3.73,4.76 -7,9.02 1.84,5.05 5.39,11.86 12.37,15.86 4.67,2.67 8.95,2.99 12.81,3.33 27.93,2.42 23.74,4.89 42.82,5.32 7,0.16 18.32,0.36 33.04,-1.83 12.08,-1.8 22.35,-4.6 30.46,-7.32 4.06,-3.53 7.78,-7.05 9.88,-10.11 56.5,-1.97 76.88,-3.52 76.87,-4.75 0.01,-0.54 -3.52,-1.76 -4.88,-2.19 z"
   id="path1394" />
				<path
   class="st21"
   d="m 182.45,127.2 c -0.42,-0.99 5.73,-6.08 13.62,-6.81 3,-0.28 7.15,-0.01 13.62,3.06 15.88,7.54 24.92,22.11 24.17,22.81 -0.48,0.45 -4.81,-4.97 -16,-12.6 -7.77,-5.29 -11.76,-7.96 -17.36,-8.85 -10.11,-1.61 -17.6,3.45 -18.05,2.39 z"
   id="path1396" />
			</g>
		</g>
		<g
   id="g1406">
			<rect
   x="0"
   y="180.03999"
   class="st2"
   width="490.26001"
   height="88.25"
   id="rect1402" />
			<text
   transform="translate(138.1681,232.8281)"
   class="st22 st25 st27"
   id="text1404"> I L I C</text>
		</g>
	</g>
</g>
<g
   class="st6"
   id="g1464"
   transform="translate(-115.37,-352.25442)">
	<g
   class="st7"
   id="g1422">
		<path
   class="st8"
   d="m 698.64,89.87 c -8.82,1.88 -23.76,4.89 -40.39,-0.68 -3.33,-1.12 -8.38,-3.13 -30.98,-20.43 -25.96,-19.87 -29.98,-25.4 -42.87,-30.38 0,0 -11.24,-4.34 -25.52,-5.25 -4.37,2.88 -8.56,6.01 -12.55,9.39 2.43,-0.24 4.9,-0.37 7.4,-0.35 50.37,0.5 71.26,57.18 123.24,60.97 16.39,1.19 38.97,-2.65 67.31,-24.09 -1.56,-2.79 -3.22,-5.52 -4.97,-8.18 -10.42,7.9 -24,15.44 -40.67,19 z"
   id="path1412" />
		<path
   class="st8"
   d="m 703.58,131.34 c -8.82,1.88 -23.76,4.89 -40.39,-0.68 -3.33,-1.12 -8.38,-3.13 -30.98,-20.43 -25.96,-19.87 -29.98,-25.4 -42.87,-30.38 0,0 -12.53,-4.84 -27.94,-5.37 -19.27,-0.65 -36.58,6.35 -50.43,14.97 -2.11,4.68 -3.96,9.51 -5.52,14.46 14.82,-11.43 32.86,-20.48 53.22,-20.28 50.37,0.5 71.26,57.18 123.24,60.97 18,1.31 43.45,-3.47 75.8,-30.91 -0.82,-3.52 -1.79,-6.98 -2.88,-10.38 -11.05,10.57 -28.19,23.11 -51.25,28.03 z"
   id="path1414" />
		<path
   class="st8"
   d="m 499.3,146.7 c 16.3,-14.85 37.73,-28.43 62.62,-28.18 50.37,0.5 71.26,57.18 123.24,60.97 18.04,1.31 43.56,-3.49 76,-31.08 0.04,-1.37 0.07,-2.74 0.07,-4.12 0,-2.99 -0.11,-5.96 -0.3,-8.9 -10.84,11.04 -28.96,25.46 -54.1,30.83 -8.82,1.88 -23.76,4.89 -40.39,-0.68 -3.33,-1.12 -8.38,-3.13 -30.98,-20.43 -25.96,-19.87 -29.98,-25.4 -42.87,-30.38 0,0 -12.53,-4.84 -27.94,-5.37 -26.84,-0.91 -49.89,13.02 -65.04,25.52 -0.22,3.11 -0.34,6.24 -0.34,9.4 0,0.81 0.02,1.62 0.03,2.42 z"
   id="path1416" />
		<path
   class="st8"
   d="m 566.46,159.63 c 50.37,0.5 71.26,57.18 123.24,60.97 14.54,1.06 33.96,-1.86 57.93,-17.49 2.63,-5.36 4.91,-10.92 6.81,-16.66 -10.7,8.56 -25.09,17.03 -43.08,20.87 -8.82,1.88 -23.76,4.89 -40.39,-0.68 -3.33,-1.12 -8.38,-3.13 -30.98,-20.43 -25.96,-19.87 -29.98,-25.4 -42.87,-30.38 0,0 -12.53,-4.84 -27.94,-5.37 -27.39,-0.93 -50.82,13.59 -65.95,26.28 0.78,3.12 1.66,6.2 2.65,9.22 16.04,-14.1 36.72,-26.57 60.58,-26.33 z"
   id="path1418" />
		<path
   class="st8"
   d="m 573.35,195.89 c 50.37,0.5 71.26,57.18 123.24,60.97 0.84,0.06 1.7,0.1 2.57,0.14 6.16,-3.87 11.97,-8.24 17.4,-13.05 -8.97,1.86 -23.08,4.18 -38.69,-1.04 -3.33,-1.12 -8.38,-3.13 -30.98,-20.43 -25.96,-19.87 -29.98,-25.4 -42.87,-30.38 0,0 -12.53,-4.84 -27.94,-5.37 -24.22,-0.82 -45.35,10.44 -60.38,21.83 1.41,2.57 2.91,5.09 4.49,7.55 14.81,-11.39 32.83,-20.42 53.16,-20.22 z"
   id="path1420" />
	</g>
	<g
   class="st7"
   id="g1462">
		<g
   id="g1426">
			<text
   transform="translate(474.8865,171.8549)"
   class="st24 st25 st26"
   id="text1424">S</text>
		</g>
		<g
   id="g1454">
			<path
   class="st13"
   d="m 571.7,89.56 c -2,1.47 -3.55,1.07 -8.43,1.79 -4.31,0.63 -9.91,1.46 -10.21,3.32 -0.26,1.65 3.71,3.64 6.13,4.85 6.08,3.05 9.47,2.48 10.98,5.36 0.23,0.43 0.14,0.43 0.77,4.6 0.32,2.13 0.69,4.25 1.02,6.38 1.84,11.77 5.36,21.96 5.36,21.96 1.97,5.7 5.14,11.46 11.49,22.98 4.99,9.05 7.48,13.58 9.19,15.83 2.02,2.66 12.59,16.58 25.02,20.43 1.26,0.39 4.58,1.31 8.94,3.32 3.79,1.75 4.36,2.48 7.91,4.34 3.61,1.89 8.97,4.69 15.83,5.87 5.95,1.02 9.41,0.2 9.96,1.79 0.34,0.99 -1.38,2.8 -4.85,6.38 -3.05,3.15 -4.61,4.75 -6.38,5.62 -3.11,1.53 -5.94,1.53 -7.66,1.53 -2.42,0 -4.76,0.01 -6.64,-1.53 -1.29,-1.06 -1.05,-1.76 -2.3,-2.81 -1.08,-0.91 -2.5,-1.43 -6.64,-1.53 -4.98,-0.13 -7.47,-0.19 -9.91,0.85 -1.13,0.48 -5.99,2.55 -6.11,6.06 -0.01,0.19 -0.05,2.12 1.3,3.24 2.11,1.75 4.64,-0.95 8.3,0.4 2.69,0.99 3.24,3.16 5.39,2.95 1.28,-0.12 1.46,-0.94 2.82,-1.51 2.67,-1.12 4.28,1.05 9.19,2.04 4.69,0.95 5.69,-0.53 9.45,1.02 2.06,0.85 1.94,1.37 4.34,2.3 2.85,1.1 3.56,0.57 7.15,1.53 3.31,0.88 2.84,1.37 6.38,2.3 2.87,0.75 6.38,1.28 6.38,1.28 0,0 0.5,-2.45 1.53,-2.81 1.12,-0.39 3.35,1.5 4.09,3.83 0.64,2.03 -0.17,3.42 0.51,3.83 0.79,0.48 2.87,-0.78 3.83,-2.55 1.48,-2.72 0.18,-6.44 -1.53,-8.68 -2.65,-3.47 -6.94,-4.21 -9.19,-4.6 -5.87,-1.02 -9.83,0.85 -10.47,-0.51 -0.16,-0.35 -0.08,-0.85 3.32,-4.85 4.28,-5.03 5.19,-5.47 6.13,-5.62 1.59,-0.24 1.9,0.6 4.94,1.04 1.9,0.28 3.38,0.19 5.53,-0.02 6.82,-0.65 7.97,-1.23 12,-1.53 4.99,-0.37 7.48,-0.55 10.47,0.26 3.24,0.87 5.85,2.45 8.67,1.26 1.08,-0.45 1.48,-1.01 2.56,-1.01 2.35,0.01 3.15,2.69 4.85,2.55 1.55,-0.12 2.96,-2.52 3.06,-4.6 0.16,-3.28 -2.92,-6.29 -5.86,-6.92 -1.37,-0.29 -1.65,0.16 -6.65,1.05 -5.52,0.98 -6.16,0.61 -6.38,0.26 -0.39,-0.63 0.38,-1.52 2.04,-4.34 2.24,-3.79 1.85,-3.87 3.57,-6.64 2.33,-3.74 2.72,-3.08 4.6,-6.13 0.95,-1.54 3.26,-5.31 3.82,-10.14 0.16,-1.42 0.41,-4.95 0.41,-4.95 16.36,-10.98 20.54,-14.78 20.54,-14.78 8.1,-7.36 14.94,-16.46 15.06,-16.6 28.44,-0.52 35.74,-0.77 35.74,-0.77 24.92,-0.83 46.15,-1.62 46.47,-5.11 0.08,-0.89 -1.22,-1.7 -2.81,-2.55 -12.71,-6.85 -25.67,-7.12 -29.11,-7.15 -7.89,-0.08 -16.26,0.37 -32.68,1.28 -12.41,0.68 -16.04,0.98 -22.21,0 -7.28,-1.16 -12.88,-3.27 -19.66,-5.87 -9.41,-3.61 -9.31,-4.54 -20.17,-9.19 -13.1,-5.62 -19.65,-8.42 -27.57,-10.21 -3.77,-0.85 -8.43,-1.67 -14.04,-4.85 -4.17,-2.37 -6.76,-4.85 -8.68,-6.64 -2.68,-2.5 -13.49,-12.59 -21.52,-17.83 -10.74,-7.02 -21.4,-8.58 -26.23,-9.23 -6.76,-0.91 -16.82,-2.27 -27.06,2.55 -5.27,2.48 -10.04,4.73 -12.44,9.7 -1.12,2.29 -1.39,4.46 -3.65,6.13 z"
   id="path1428" />
			<g
   id="g1452">
				<path
   class="st14"
   d="m 723.18,215.94 c -1.47,-1.94 -3.8,-2.17 -4.21,-2.21 -0.67,-0.07 -1.46,0.09 -3.01,0.39 -2.68,0.53 -3.07,0.83 -4.71,1.12 -1.96,0.34 -3.48,0.27 -4.91,0.2 -1.02,-0.05 -2.25,-0.16 -3.62,-0.41 0.31,-0.46 0.58,-1.07 0.95,-1.85 0.85,-1.79 2.02,-3.4 2.88,-5.18 1.43,-2.95 2.49,-4.24 6.26,-9.52 2.16,-3.03 4.76,-8.39 6.47,-18.64 -1.94,0.92 -3.87,1.83 -5.81,2.75 -3.1,10.29 -4.69,13.85 -5.56,15.06 -1.45,2 -1.77,2.54 -2.44,3.59 -0.29,0.46 -0.53,0.87 -0.83,1.36 -0.05,0.08 -0.19,0.32 -0.4,0.66 -0.38,0.61 -0.8,1.25 -1.61,2.44 -2.13,3.18 -3.65,5.23 -4.42,6.68 -1.37,0.72 -2.57,1.08 -3.43,1.28 -0.98,0.22 -2.39,0.24 -5.21,0.27 -2.37,0.03 -3.03,-0.06 -3.8,-0.38 -1.09,-0.46 -1.1,-0.85 -2.1,-1.11 -1.08,-0.28 -2.07,-0.08 -2.75,0.16 -0.11,-0.03 -0.21,-0.05 -0.32,-0.07 -0.31,-0.05 -0.68,-0.03 -1.21,0.05 -0.62,0.79 -1.22,1.58 -1.85,2.37 -0.67,0.84 -1.35,1.66 -2.02,2.48 0.28,0.13 0.59,0.23 0.96,0.25 0.58,0.04 0.99,-0.11 1.42,-0.34 0.04,0.2 0.11,0.4 0.19,0.6 0.47,1.06 1.46,1.66 1.58,1.55 0.1,-0.09 -0.47,-0.66 -0.7,-1.76 -0.05,-0.24 -0.11,-0.55 -0.12,-0.89 0.07,-0.03 0.13,-0.07 0.21,-0.1 0.06,-0.03 0.13,-0.05 0.19,-0.07 0.04,0 0.07,0 0.1,0.01 1.01,0.03 1.65,-0.12 2.25,-0.28 0.13,0.14 0.33,0.33 0.6,0.57 1.2,1.05 4.53,0.85 4.53,0.85 5.73,-0.21 5.37,0.03 7.99,-0.29 1.76,-0.22 2.91,-0.37 3.77,-0.66 0.34,0.27 0.74,0.53 1.21,0.76 0.75,0.37 1.56,0.6 3.57,0.76 2.59,0.2 2.73,-0.06 4.98,0.1 2.24,0.16 3.35,0.24 4.46,0.55 0.54,0.15 1.74,0.52 3.15,0.22 0.8,-0.17 1.02,-0.42 1.11,-0.58 0.42,-0.75 -0.52,-1.81 -0.18,-2.21 0.22,-0.26 0.83,-0.04 1.61,0.26 2.26,0.87 3.39,1.31 3.78,1.67 1.55,1.45 1.4,3.49 1.69,3.45 0.38,-0.03 1.15,-3.48 -0.69,-5.91 z"
   id="path1430" />
				<path
   class="st15"
   d="m 594.44,130.72 c -4.25,-4.53 -5.66,-8.31 -10.94,-17.36 -2.7,-4.63 -6.14,-10.14 -10.38,-16.21 -1.07,4.7 -0.65,8.8 -0.2,12.05 3.1,22.37 12.52,41.83 17.96,51.85 1.55,-0.88 3.2,-1.93 4.91,-3.2 1.57,-1.17 4.8,-3.74 11.27,-11.61 1.71,-2.08 2.97,-3.7 3.95,-5.03 -7.51,-2.66 -12.79,-6.46 -16.57,-10.49 z"
   id="path1432" />
				<path
   class="st16"
   d="m 649.81,91.01 c -7.39,-5.56 -11.09,-8.33 -16.17,-10.84 -3.68,-1.82 -11.84,-5.75 -23.09,-6.53 -7.84,-0.54 -18.32,-1.26 -27.17,5.64 -6.58,5.13 -9.01,11.94 -9.54,13.53 -0.28,0.84 -0.5,1.65 -0.69,2.46 4.42,6.25 7.99,11.92 10.81,16.69 5.51,9.32 6.97,13.21 11.4,17.87 3.94,4.15 9.44,8.06 17.28,10.8 3.12,-4.16 3.65,-5.57 6.86,-8.96 3.62,-3.82 7.4,-6.33 14.97,-11.37 7.95,-5.29 14.65,-8.93 23.16,-13.52 2.69,-1.45 5.1,-2.72 7.12,-3.77 -3.83,-2.71 -6.42,-5.6 -14.94,-12 z"
   id="path1434" />
				<path
   class="st14"
   d="m 670.25,210.85 c -1.14,1.63 -2.98,4.06 -5.62,6.73 -0.91,0.92 -1.54,1.51 -3.32,3.12 -3.5,3.18 -5.93,5.19 -7.26,6.7 -1.88,0.47 -3.46,0.56 -4.58,0.55 -1.26,-0.01 -3.01,-0.39 -6.49,-1.15 -2.93,-0.64 -3.73,-0.93 -4.58,-1.53 -1.21,-0.85 -1.13,-1.32 -2.29,-1.91 -1.25,-0.63 -2.53,-0.68 -3.44,-0.59 -0.12,-0.06 -0.25,-0.12 -0.38,-0.18 -0.6,-0.24 -1.42,-0.29 -3.05,-0.38 -2.69,-0.15 -4.06,-0.21 -5.35,0.38 -0.3,0.14 -0.85,0.41 -1.4,0.88 -1.03,-0.03 -1.94,0.14 -2.8,0.65 -2.19,1.28 -2.89,4.06 -2.67,4.2 0.16,0.1 0.82,-1.27 2.67,-2.29 0.54,-0.3 1.01,-0.55 1.5,-0.68 -0.61,1.64 -0.25,3.31 0.03,3.35 0.31,0.05 0.35,-1.9 1.59,-3.23 1.02,0.48 1.53,1.64 2.99,2.08 0.7,0.21 1.25,0.14 1.84,0 0,0.25 0.02,0.51 0.07,0.76 0.29,1.39 1.35,2.38 1.53,2.29 0.15,-0.08 -0.4,-0.92 -0.38,-2.29 0,-0.3 0.01,-0.69 0.1,-1.09 0.09,-0.02 0.18,-0.04 0.28,-0.06 0.09,-0.01 0.17,-0.02 0.25,-0.04 0.04,0.01 0.08,0.02 0.13,0.04 1.23,0.32 2.06,0.32 2.85,0.3 0.12,0.2 0.31,0.48 0.58,0.84 1.2,1.58 5.35,2.29 5.35,2.29 7.13,1.37 6.61,1.56 9.93,1.91 2.23,0.24 3.69,0.39 4.82,0.28 0.35,0.41 0.77,0.84 1.29,1.25 0.82,0.65 1.76,1.15 4.2,1.91 3.14,0.97 3.39,0.7 6.11,1.53 2.71,0.82 4.07,1.23 5.35,1.91 0.63,0.33 2,1.1 3.82,1.15 1.03,0.02 1.37,-0.21 1.53,-0.38 0.72,-0.78 -0.15,-2.3 0.38,-2.67 0.35,-0.24 1.03,0.19 1.91,0.76 2.55,1.68 3.82,2.52 4.2,3.05 1.51,2.16 0.78,4.55 1.15,4.58 0.47,0.05 2.37,-3.85 0.76,-7.26 -1.28,-2.72 -4.09,-3.66 -4.58,-3.82 -0.81,-0.27 -1.82,-0.31 -3.82,-0.38 -3.45,-0.12 -4.01,0.12 -6.11,0 -2.51,-0.15 -4.37,-0.66 -6.11,-1.15 -1.25,-0.35 -2.73,-0.83 -4.35,-1.5 0.51,-0.46 1.01,-1.11 1.68,-1.93 1.54,-1.88 3.41,-3.47 4.96,-5.35 3.04,-3.67 6.76,-6 10.31,-9.55 1.52,-1.52 3.66,-3.8 6.01,-6.85 -1.61,0.93 -4.1,2.08 -7.32,2.55 -1.62,0.28 -3.06,0.29 -4.27,0.22 z"
   id="path1436" />
				<path
   class="st17"
   d="m 575.45,93.4 c 0,0 -7.36,-1.19 -15.01,0.2 -3.63,0.66 -4.22,1.33 -4.27,1.8 -0.06,0.54 0.55,1.07 2.42,2.23 2.64,1.63 3.96,2.45 6.27,3.35 4.94,1.92 4.3,0.84 7.67,2.44 0.81,0.38 2.38,1.18 3.26,0.54 0.56,-0.41 0.45,-1.11 1.02,-1.36 0.93,-0.41 2.15,1.05 2.47,0.82 0.25,-0.18 -0.13,-1.39 -2.47,-5.41 0,-0.02 -0.21,-0.59 -1.36,-4.61 z"
   id="path1438" />
				<path
   class="st13"
   d="m 593.83,98.51 c 1.69,-3.11 4.72,-4.21 5.79,-4.6 5.3,-1.93 9.91,0.74 10.38,1.02 1.01,0.61 5.02,3.01 5.45,7.49 0.32,3.36 -1.56,5.83 -2.04,6.47 -3.01,3.96 -7.88,4.2 -9.02,4.26 -1.54,0.08 -5.62,0.28 -8.68,-2.72 -3.08,-3.03 -3.94,-8.13 -1.88,-11.92 z"
   id="path1440" />
				<circle
   class="st18"
   cx="603.35999"
   cy="102.81"
   r="6.8200002"
   id="circle1442" />
				<circle
   class="st13"
   cx="603.35999"
   cy="102.63"
   r="2.4200001"
   id="circle1444" />
				<path
   class="st19"
   d="m 681.83,167.17 c -19.26,-0.44 -15.03,-2.97 -43.23,-5.45 -3.9,-0.34 -8.22,-0.67 -12.94,-3.4 -7.05,-4.1 -10.63,-11.07 -12.49,-16.24 -1,1.32 -2.24,2.9 -3.91,4.9 -6.75,8.1 -10.11,10.74 -11.75,11.95 -1.78,1.31 -3.5,2.39 -5.11,3.29 0.53,0.97 1.04,1.86 1.49,2.66 4.3,7.55 6.61,10.55 8.51,12.77 5.58,6.5 12.34,11.67 22.81,17.02 21.63,11.06 36.06,18.44 52.43,13.62 11.02,-3.24 23.01,-12.04 26.65,-17.7 0.31,-0.49 1.49,-2.39 3.56,-4.52 3.88,-3.99 7.96,-5.77 9.28,-6.37 7.2,-3.3 14.25,-9.34 23.97,-17.68 1.62,-1.39 3.27,-2.8 4.87,-4.22 -8.19,2.79 -18.56,5.66 -30.76,7.49 -14.89,2.25 -26.32,2.04 -33.38,1.88 z"
   id="path1446" />
				<path
   class="st20"
   d="m 827.79,139.54 c -2.14,-0.67 -3.87,-0.92 -4.55,-1.01 -13.3,-1.72 -23.77,-0.98 -23.77,-0.98 -12.56,0.89 -25.18,0.05 -37.76,0.17 -3.87,0.04 -7.39,0.07 -10.48,0.09 -1.53,-0.31 -3.35,-0.65 -5.46,-1.15 -5.84,-1.4 -5.66,-2.06 -23.84,-9.92 -17.15,-7.41 -25.73,-11.11 -34.9,-14.13 -9.73,-3.21 -11.7,-3.2 -16.94,-6.06 -1.51,-0.82 -2.73,-1.58 -3.84,-2.35 -2.01,1.03 -4.39,2.27 -7.06,3.69 -8.43,4.49 -15.07,8.05 -22.94,13.21 -7.5,4.92 -11.24,7.38 -14.83,11.11 -3.24,3.37 -3.73,4.76 -7,9.02 1.84,5.05 5.39,11.86 12.37,15.86 4.67,2.67 8.95,2.99 12.81,3.33 27.93,2.42 23.74,4.89 42.82,5.32 7,0.16 18.32,0.36 33.04,-1.83 12.08,-1.8 22.35,-4.6 30.46,-7.32 4.06,-3.53 7.78,-7.05 9.88,-10.11 56.5,-1.97 76.88,-3.52 76.87,-4.75 0.01,-0.54 -3.51,-1.76 -4.88,-2.19 z"
   id="path1448" />
				<path
   class="st21"
   d="m 588.04,92.21 c -0.42,-0.99 5.73,-6.08 13.62,-6.81 3,-0.28 7.15,-0.01 13.62,3.06 15.88,7.54 24.92,22.11 24.17,22.81 -0.48,0.45 -4.81,-4.97 -16,-12.6 -7.77,-5.29 -11.76,-7.96 -17.36,-8.85 -10.1,-1.61 -17.6,3.45 -18.05,2.39 z"
   id="path1450" />
			</g>
		</g>
		<g
   id="g1460">
			<rect
   x="499.26999"
   y="145.05"
   class="st2"
   width="299.34"
   height="88.25"
   id="rect1456" />
			<text
   transform="translate(541.9791,197.8408)"
   class="st22 st25 st27"
   id="text1458"> I L I C</text>
		</g>
	</g>
</g>
<g
   class="st6"
   id="g1528"
   transform="translate(-115.37,-352.25442)">
	<g
   class="st7"
   id="g1526">
		<rect
   x="117.48"
   y="423.70999"
   class="st9"
   width="11.14"
   height="80.099998"
   id="rect1466" />
		<g
   id="g1472">
			<g
   id="g1470">
				<path
   class="st9"
   d="m 120.39,503.72 c 22.96,-0.32 45.92,-0.64 68.88,-0.97 36.44,-0.51 72.87,-1.02 109.31,-1.53 8.45,-0.12 16.9,-0.24 25.34,-0.36 1.61,-0.02 1.61,-2.52 0,-2.5 -22.96,0.32 -45.92,0.64 -68.88,0.97 -36.44,0.51 -72.87,1.02 -109.31,1.53 -8.45,0.12 -16.9,0.24 -25.34,0.36 -1.6,0.03 -1.61,2.53 0,2.5 z"
   id="path1468" />
			</g>
		</g>
		<g
   id="g1478">
			<g
   id="g1476">
				<path
   class="st9"
   d="m 120.12,484.39 c 25.2,-0.35 50.4,-0.71 75.6,-1.06 39.94,-0.56 79.88,-1.12 119.82,-1.68 9.16,-0.13 18.32,-0.26 27.48,-0.39 1.61,-0.02 1.61,-2.52 0,-2.5 -25.2,0.35 -50.4,0.71 -75.6,1.06 -39.94,0.56 -79.88,1.12 -119.82,1.68 -9.16,0.13 -18.32,0.26 -27.48,0.39 -1.61,0.02 -1.61,2.52 0,2.5 z"
   id="path1474" />
			</g>
		</g>
		<g
   id="g1484">
			<g
   id="g1482">
				<path
   class="st9"
   d="m 119.85,465.06 c 27.53,-0.39 55.05,-0.77 82.58,-1.16 43.69,-0.61 87.37,-1.23 131.06,-1.84 10.07,-0.14 20.13,-0.28 30.2,-0.42 1.61,-0.02 1.61,-2.52 0,-2.5 -27.53,0.39 -55.05,0.77 -82.58,1.16 -43.69,0.61 -87.37,1.23 -131.06,1.84 -10.07,0.14 -20.13,0.28 -30.2,0.42 -1.61,0.02 -1.61,2.52 0,2.5 z"
   id="path1480" />
			</g>
		</g>
		<g
   id="g1490">
			<g
   id="g1488">
				<path
   class="st9"
   d="m 119.57,444.95 c 29.45,-0.41 58.91,-0.83 88.36,-1.24 46.55,-0.65 93.1,-1.31 139.66,-1.96 10.74,-0.15 21.49,-0.3 32.23,-0.45 1.61,-0.02 1.61,-2.52 0,-2.5 -29.45,0.41 -58.91,0.83 -88.36,1.24 -46.55,0.65 -93.1,1.31 -139.66,1.96 -10.74,0.15 -21.49,0.3 -32.23,0.45 -1.61,0.02 -1.61,2.52 0,2.5 z"
   id="path1486" />
			</g>
		</g>
		<g
   id="g1496">
			<g
   id="g1494">
				<path
   class="st9"
   d="m 119.29,424.84 c 31.53,-0.44 63.06,-0.88 94.59,-1.33 50.2,-0.7 100.41,-1.41 150.61,-2.11 11.45,-0.16 22.91,-0.32 34.36,-0.48 1.61,-0.02 1.61,-2.52 0,-2.5 -31.53,0.44 -63.06,0.88 -94.59,1.33 -50.2,0.7 -100.41,1.41 -150.61,2.11 -11.45,0.16 -22.91,0.32 -34.36,0.48 -1.61,0.03 -1.61,2.53 0,2.5 z"
   id="path1492" />
			</g>
		</g>
		<g
   id="g1524">
			<path
   class="st13"
   d="m 152.93,361.06 c -1.95,1.54 -3.52,1.19 -8.36,2.06 -4.29,0.78 -9.86,1.79 -10.1,3.65 -0.21,1.66 3.83,3.52 6.28,4.65 6.18,2.85 9.55,2.16 11.15,5 0.24,0.43 0.16,0.43 0.92,4.57 0.39,2.12 0.83,4.23 1.23,6.35 2.23,11.7 6.08,21.77 6.08,21.77 2.15,5.63 5.52,11.28 12.24,22.59 5.29,8.89 7.93,13.33 9.71,15.52 2.11,2.59 13.13,16.16 25.68,19.59 1.27,0.35 4.62,1.16 9.04,3.02 3.84,1.62 4.44,2.34 8.05,4.08 3.67,1.77 9.12,4.4 16.01,5.35 5.98,0.83 9.41,-0.11 10.01,1.46 0.37,0.97 -1.29,2.84 -4.64,6.54 -2.94,3.25 -4.45,4.9 -6.19,5.82 -3.06,1.63 -5.88,1.72 -7.6,1.78 -2.42,0.08 -4.75,0.16 -6.69,-1.31 -1.33,-1.01 -1.11,-1.72 -2.39,-2.73 -1.11,-0.88 -2.55,-1.34 -6.69,-1.31 -4.98,0.04 -7.47,0.06 -9.88,1.18 -1.12,0.52 -5.9,2.74 -5.9,6.26 0,0.19 0.02,2.12 1.41,3.2 2.16,1.68 4.61,-1.1 8.31,0.13 2.72,0.9 3.34,3.05 5.48,2.77 1.28,-0.17 1.43,-0.99 2.77,-1.6 2.63,-1.2 4.32,0.91 9.25,1.74 4.72,0.79 5.67,-0.72 9.48,0.71 2.09,0.78 1.99,1.31 4.41,2.15 2.88,1 3.58,0.46 7.2,1.3 3.34,0.78 2.88,1.27 6.46,2.09 2.89,0.66 6.42,1.07 6.42,1.07 0,0 0.41,-2.46 1.44,-2.86 1.11,-0.43 3.4,1.39 4.21,3.69 0.71,2.01 -0.06,3.42 0.64,3.81 0.81,0.45 2.84,-0.88 3.74,-2.68 1.39,-2.77 -0.03,-6.44 -1.82,-8.63 -2.77,-3.38 -7.07,-3.97 -9.34,-4.29 -5.9,-0.82 -9.8,1.18 -10.48,-0.17 -0.18,-0.35 -0.11,-0.85 3.16,-4.96 4.11,-5.17 5.01,-5.64 5.94,-5.82 1.58,-0.29 1.91,0.53 4.97,0.88 1.91,0.22 3.38,0.07 5.53,-0.2 6.79,-0.88 7.92,-1.5 11.94,-1.93 4.97,-0.53 7.46,-0.8 10.47,-0.09 3.26,0.77 5.92,2.25 8.71,0.98 1.07,-0.49 1.45,-1.06 2.53,-1.09 2.35,-0.06 3.24,2.58 4.93,2.39 1.55,-0.17 2.88,-2.62 2.91,-4.69 0.05,-3.28 -3.12,-6.19 -6.08,-6.72 -1.38,-0.25 -1.65,0.21 -6.61,1.27 -5.48,1.16 -6.14,0.82 -6.37,0.47 -0.41,-0.62 0.33,-1.54 1.9,-4.41 2.12,-3.87 1.72,-3.93 3.35,-6.75 2.21,-3.81 2.62,-3.17 4.39,-6.28 0.9,-1.58 3.09,-5.42 3.48,-10.26 0.12,-1.42 0.24,-4.96 0.24,-4.96 15.99,-11.52 20.04,-15.45 20.04,-15.45 7.85,-7.62 14.39,-16.94 14.51,-17.08 28.41,-1.46 35.7,-1.94 35.7,-1.94 24.88,-1.66 46.07,-3.14 46.27,-6.64 0.05,-0.89 -1.28,-1.66 -2.89,-2.46 -12.92,-6.43 -25.89,-6.26 -29.33,-6.18 -7.89,0.18 -16.24,0.91 -32.62,2.35 -12.38,1.09 -16,1.51 -22.2,0.73 -7.31,-0.92 -12.98,-2.85 -19.84,-5.22 -9.53,-3.3 -9.45,-4.23 -20.46,-8.52 -13.28,-5.18 -19.92,-7.77 -27.9,-9.3 -3.8,-0.73 -8.48,-1.39 -14.19,-4.39 -4.25,-2.23 -6.92,-4.62 -8.9,-6.35 -2.76,-2.41 -13.9,-12.14 -22.1,-17.11 -10.97,-6.67 -21.67,-7.87 -26.52,-8.36 -6.78,-0.69 -16.89,-1.72 -26.96,3.44 -5.18,2.66 -9.88,5.06 -12.12,10.1 -1.01,2.31 -1.21,4.49 -3.42,6.23 z"
   id="path1498" />
			<g
   id="g1522">
				<path
   class="st14"
   d="m 308.5,482.37 c -1.53,-1.89 -3.87,-2.05 -4.28,-2.07 -0.67,-0.04 -1.46,0.13 -3,0.49 -2.66,0.62 -3.04,0.93 -4.67,1.27 -1.95,0.4 -3.47,0.38 -4.9,0.36 -1.03,-0.01 -2.25,-0.09 -3.63,-0.29 0.3,-0.47 0.55,-1.09 0.89,-1.88 0.79,-1.81 1.91,-3.47 2.71,-5.27 1.33,-2.99 2.35,-4.32 5.95,-9.72 2.06,-3.1 4.48,-8.55 5.85,-18.84 -1.9,0.98 -3.81,1.96 -5.71,2.94 -2.76,10.38 -4.23,14 -5.06,15.24 -1.38,2.05 -1.68,2.6 -2.32,3.67 -0.28,0.47 -0.51,0.88 -0.79,1.39 -0.04,0.08 -0.18,0.33 -0.38,0.67 -0.36,0.63 -0.76,1.27 -1.52,2.5 -2.03,3.25 -3.48,5.35 -4.19,6.83 -1.34,0.77 -2.53,1.17 -3.38,1.39 -0.97,0.25 -2.38,0.32 -5.19,0.44 -2.37,0.11 -3.04,0.04 -3.81,-0.26 -1.1,-0.42 -1.13,-0.81 -2.14,-1.04 -1.09,-0.24 -2.07,-0.01 -2.75,0.25 -0.11,-0.02 -0.22,-0.05 -0.33,-0.06 -0.31,-0.04 -0.68,-0.01 -1.21,0.09 -0.59,0.81 -1.16,1.62 -1.78,2.43 -0.65,0.86 -1.29,1.71 -1.93,2.54 0.28,0.12 0.59,0.21 0.96,0.22 0.58,0.02 0.99,-0.15 1.4,-0.38 0.05,0.2 0.12,0.4 0.21,0.59 0.5,1.04 1.52,1.61 1.63,1.5 0.1,-0.09 -0.49,-0.64 -0.76,-1.74 -0.06,-0.24 -0.13,-0.55 -0.14,-0.88 0.07,-0.03 0.13,-0.07 0.2,-0.1 0.06,-0.03 0.12,-0.05 0.19,-0.08 0.04,0 0.07,0 0.1,0 1.01,-0.01 1.64,-0.18 2.24,-0.35 0.13,0.13 0.34,0.32 0.62,0.55 1.24,1.01 4.55,0.7 4.55,0.7 5.73,-0.39 5.37,-0.14 7.98,-0.55 1.75,-0.28 2.9,-0.46 3.74,-0.78 0.35,0.26 0.76,0.51 1.24,0.72 0.76,0.34 1.58,0.55 3.6,0.64 2.59,0.12 2.73,-0.15 4.98,-0.06 2.24,0.09 3.36,0.13 4.47,0.4 0.55,0.13 1.75,0.46 3.15,0.11 0.8,-0.2 1,-0.45 1.09,-0.62 0.39,-0.77 -0.58,-1.79 -0.25,-2.2 0.22,-0.27 0.83,-0.07 1.61,0.21 2.29,0.8 3.43,1.2 3.83,1.55 1.59,1.4 1.52,3.44 1.8,3.4 0.39,-0.07 1.05,-3.55 -0.87,-5.92 z"
   id="path1500" />
				<path
   class="st15"
   d="m 177.01,401.45 c -4.4,-4.39 -5.93,-8.12 -11.51,-16.99 -2.86,-4.54 -6.47,-9.93 -10.9,-15.86 -0.91,4.73 -0.36,8.81 0.2,12.05 3.84,22.25 13.9,41.4 19.67,51.23 1.52,-0.93 3.14,-2.03 4.8,-3.36 1.53,-1.22 4.67,-3.9 10.89,-11.97 1.64,-2.13 2.84,-3.79 3.79,-5.16 -7.62,-2.41 -13.02,-6.04 -16.94,-9.94 z"
   id="path1502" />
				<path
   class="st16"
   d="m 231.05,359.93 c -7.57,-5.31 -11.36,-7.96 -16.52,-10.31 -3.74,-1.7 -12.02,-5.36 -23.29,-5.76 -7.85,-0.28 -18.35,-0.66 -26.97,6.53 -6.41,5.35 -8.61,12.23 -9.09,13.84 -0.25,0.85 -0.45,1.67 -0.6,2.48 4.62,6.1 8.38,11.65 11.36,16.32 5.81,9.13 7.4,12.97 11.99,17.49 4.08,4.02 9.7,7.75 17.63,10.22 2.98,-4.26 3.46,-5.69 6.56,-9.18 3.49,-3.93 7.19,-6.57 14.59,-11.86 7.77,-5.55 14.35,-9.4 22.71,-14.28 2.64,-1.54 5,-2.89 7,-4.01 -3.96,-2.56 -6.65,-5.36 -15.37,-11.48 z"
   id="path1504" />
				<path
   class="st14"
   d="m 255.44,479.03 c -1.09,1.67 -2.85,4.16 -5.4,6.91 -0.88,0.94 -1.49,1.56 -3.21,3.23 -3.39,3.29 -5.75,5.38 -7.04,6.94 -1.86,0.53 -3.44,0.68 -4.55,0.7 -1.26,0.03 -3.02,-0.29 -6.53,-0.93 -2.95,-0.54 -3.75,-0.8 -4.63,-1.38 -1.24,-0.81 -1.17,-1.29 -2.35,-1.83 -1.27,-0.59 -2.55,-0.59 -3.46,-0.47 -0.12,-0.06 -0.25,-0.11 -0.39,-0.16 -0.61,-0.22 -1.43,-0.24 -3.07,-0.28 -2.7,-0.06 -4.07,-0.08 -5.33,0.56 -0.3,0.15 -0.84,0.43 -1.37,0.93 -1.03,0.01 -1.94,0.21 -2.77,0.74 -2.14,1.36 -2.75,4.16 -2.53,4.29 0.16,0.1 0.78,-1.29 2.6,-2.38 0.53,-0.32 0.99,-0.59 1.47,-0.73 -0.56,1.66 -0.14,3.32 0.14,3.35 0.31,0.04 0.29,-1.91 1.48,-3.28 1.04,0.44 1.58,1.59 3.06,1.98 0.71,0.19 1.25,0.1 1.84,-0.06 0.01,0.25 0.04,0.51 0.1,0.76 0.33,1.38 1.43,2.34 1.6,2.24 0.15,-0.08 -0.43,-0.9 -0.46,-2.28 -0.01,-0.3 -0.01,-0.69 0.06,-1.09 0.09,-0.02 0.18,-0.05 0.28,-0.07 0.08,-0.02 0.17,-0.03 0.25,-0.04 0.04,0.01 0.08,0.02 0.13,0.03 1.24,0.27 2.07,0.25 2.86,0.21 0.13,0.19 0.33,0.47 0.61,0.82 1.25,1.54 5.42,2.11 5.42,2.11 7.17,1.14 6.66,1.34 9.99,1.58 2.24,0.16 3.7,0.26 4.83,0.12 0.36,0.4 0.8,0.82 1.33,1.21 0.84,0.62 1.8,1.09 4.26,1.77 3.17,0.87 3.41,0.59 6.16,1.33 2.74,0.73 4.11,1.1 5.41,1.73 0.64,0.31 2.04,1.04 3.85,1.02 1.03,-0.01 1.36,-0.25 1.51,-0.43 0.7,-0.8 -0.22,-2.29 0.29,-2.68 0.34,-0.25 1.04,0.15 1.93,0.7 2.6,1.59 3.9,2.39 4.3,2.91 1.58,2.11 0.93,4.52 1.3,4.54 0.47,0.03 2.24,-3.92 0.52,-7.28 -1.37,-2.68 -4.21,-3.52 -4.71,-3.67 -0.82,-0.24 -1.83,-0.25 -3.83,-0.26 -3.45,-0.01 -4,0.26 -6.11,0.2 -2.52,-0.07 -4.39,-0.52 -6.14,-0.94 -1.26,-0.3 -2.75,-0.74 -4.4,-1.36 0.5,-0.48 0.97,-1.14 1.61,-1.99 1.47,-1.93 3.3,-3.58 4.79,-5.51 2.92,-3.77 6.56,-6.22 9.99,-9.88 1.47,-1.57 3.53,-3.92 5.78,-7.04 -1.58,0.98 -4.03,2.22 -7.23,2.79 -1.6,0.3 -3.04,0.36 -4.24,0.32 z"
   id="path1506" />
				<path
   class="st17"
   d="m 156.8,364.77 c 0,0 -7.4,-0.94 -14.99,0.69 -3.6,0.78 -4.17,1.47 -4.21,1.94 -0.05,0.54 0.59,1.05 2.49,2.15 2.69,1.54 4.04,2.32 6.38,3.14 5,1.75 4.32,0.7 7.75,2.18 0.82,0.36 2.42,1.1 3.27,0.44 0.55,-0.42 0.41,-1.12 0.98,-1.39 0.92,-0.44 2.19,0.98 2.49,0.74 0.25,-0.19 -0.18,-1.39 -2.65,-5.33 0.01,-0.01 -0.22,-0.57 -1.51,-4.56 z"
   id="path1508" />
				<path
   class="st13"
   d="m 175.35,369.27 c 1.58,-3.16 4.58,-4.36 5.63,-4.78 5.23,-2.1 9.93,0.41 10.41,0.68 1.03,0.57 5.11,2.84 5.69,7.31 0.43,3.34 -1.37,5.88 -1.83,6.53 -2.87,4.05 -7.74,4.46 -8.88,4.55 -1.54,0.13 -5.61,0.46 -8.77,-2.44 -3.16,-2.92 -4.19,-7.99 -2.25,-11.85 z"
   id="path1510" />
				<circle
   class="st18"
   cx="185.02"
   cy="373.26001"
   r="6.8200002"
   id="circle1512" />
				<circle
   class="st13"
   cx="185.00999"
   cy="373.07999"
   r="2.4200001"
   id="circle1514" />
				<path
   class="st19"
   d="m 265.56,435 c -19.26,0.2 -15.12,-2.47 -43.39,-4.02 -3.9,-0.21 -8.24,-0.4 -13.04,-2.98 -7.18,-3.86 -10.99,-10.71 -13.02,-15.81 -0.95,1.35 -2.15,2.97 -3.75,5.03 -6.48,8.32 -9.75,11.07 -11.35,12.33 -1.73,1.37 -3.42,2.5 -5,3.46 0.57,0.95 1.1,1.83 1.57,2.61 4.55,7.4 6.95,10.33 8.93,12.48 5.79,6.31 12.72,11.26 23.36,16.26 21.98,10.34 36.64,17.24 52.85,11.88 10.91,-3.61 22.6,-12.79 26.05,-18.57 0.3,-0.5 1.41,-2.44 3.41,-4.63 3.74,-4.12 7.76,-6.03 9.06,-6.68 7.09,-3.54 13.93,-9.81 23.37,-18.46 1.57,-1.44 3.17,-2.91 4.73,-4.37 -8.1,3.06 -18.37,6.27 -30.49,8.51 -14.79,2.72 -26.22,2.89 -33.29,2.96 z"
   id="path1516" />
				<path
   class="st20"
   d="m 410.54,402.57 c -2.16,-0.6 -3.9,-0.79 -4.58,-0.86 -13.35,-1.29 -23.79,-0.2 -23.79,-0.2 -12.52,1.3 -25.16,0.88 -37.74,1.41 -3.86,0.16 -7.38,0.31 -10.47,0.44 -1.54,-0.26 -3.37,-0.54 -5.5,-0.97 -5.89,-1.2 -5.72,-1.88 -24.16,-9.12 -17.39,-6.84 -26.08,-10.25 -35.34,-12.98 -9.83,-2.89 -11.8,-2.81 -17.13,-5.5 -1.53,-0.77 -2.78,-1.49 -3.92,-2.23 -1.97,1.09 -4.31,2.41 -6.93,3.92 -8.28,4.77 -14.8,8.54 -22.49,13.96 -7.33,5.16 -10.99,7.74 -14.45,11.59 -3.13,3.48 -3.57,4.88 -6.7,9.24 2.01,4.98 5.78,11.68 12.89,15.44 4.75,2.52 9.05,2.69 12.91,2.9 28,1.5 23.89,4.11 42.97,3.91 7,-0.07 18.32,-0.24 32.96,-2.92 12.01,-2.19 22.18,-5.33 30.2,-8.32 3.94,-3.66 7.55,-7.3 9.54,-10.43 56.41,-3.83 76.72,-6.06 76.67,-7.29 0,-0.5 -3.56,-1.61 -4.94,-1.99 z"
   id="path1518" />
				<path
   class="st21"
   d="m 169.35,363.17 c -0.45,-0.97 5.53,-6.26 13.38,-7.25 2.99,-0.38 7.15,-0.24 13.71,2.61 16.12,7.02 25.64,21.28 24.91,22 -0.47,0.46 -4.98,-4.81 -16.41,-12.06 -7.94,-5.03 -12.02,-7.56 -17.64,-8.27 -10.14,-1.29 -17.46,4.02 -17.95,2.97 z"
   id="path1520" />
			</g>
		</g>
	</g>
</g>
<g
   id="g1608"
   transform="translate(-115.37,-352.25442)">
	<g
   id="g1602">
		<g
   id="g1572">
			<path
   class="st9"
   d="m 378.32,491.08 -0.76,-7.09 c 0.89,0.63 1.93,1.17 3.13,1.62 1.2,0.45 2.44,0.81 3.74,1.07 1.3,0.26 2.59,0.43 3.88,0.51 1.29,0.08 2.47,0.06 3.55,-0.05 3.7,-0.4 6.39,-1.38 8.07,-2.95 1.68,-1.57 2.38,-3.64 2.1,-6.22 -0.15,-1.39 -0.58,-2.56 -1.3,-3.52 -0.72,-0.96 -1.66,-1.81 -2.83,-2.54 -1.17,-0.73 -2.52,-1.41 -4.08,-2.03 -1.55,-0.62 -3.22,-1.27 -5.01,-1.94 -1.89,-0.72 -3.66,-1.46 -5.31,-2.22 -1.65,-0.76 -3.11,-1.65 -4.38,-2.65 -1.27,-1 -2.3,-2.17 -3.11,-3.52 -0.81,-1.35 -1.32,-2.98 -1.52,-4.89 -0.25,-2.34 0.04,-4.43 0.88,-6.27 0.84,-1.84 2.04,-3.41 3.59,-4.72 1.55,-1.3 3.37,-2.34 5.44,-3.12 2.07,-0.78 4.23,-1.29 6.45,-1.53 5.06,-0.54 8.82,-0.33 11.27,0.64 l 0.73,6.77 c -3.26,-1.78 -7.26,-2.41 -12.02,-1.9 -1.31,0.14 -2.61,0.42 -3.9,0.83 -1.28,0.42 -2.41,0.99 -3.37,1.72 -0.96,0.73 -1.71,1.62 -2.25,2.67 -0.54,1.05 -0.73,2.28 -0.58,3.69 0.14,1.31 0.51,2.42 1.1,3.32 0.59,0.9 1.41,1.7 2.45,2.38 1.04,0.69 2.29,1.32 3.74,1.92 1.45,0.59 3.12,1.24 5.01,1.93 1.94,0.71 3.78,1.48 5.54,2.3 1.76,0.82 3.32,1.78 4.69,2.87 1.37,1.08 2.5,2.33 3.39,3.73 0.89,1.4 1.43,3.06 1.64,4.97 0.27,2.53 0.01,4.73 -0.8,6.59 -0.8,1.86 -1.99,3.43 -3.55,4.71 -1.57,1.28 -3.42,2.28 -5.57,3.01 -2.14,0.73 -4.43,1.22 -6.87,1.48 -0.81,0.09 -1.82,0.13 -3.03,0.13 -1.21,0 -2.45,-0.06 -3.72,-0.18 -1.27,-0.12 -2.48,-0.3 -3.63,-0.55 -1.15,-0.27 -2.08,-0.59 -2.8,-0.97 z"
   id="path1530" />
			<path
   class="st3"
   d="m 451.27,437.47 -0.65,4.64 -4.51,-0.63 -5.19,36.9 4.51,0.63 -0.65,4.64 -14.43,-2.03 0.65,-4.64 4.51,0.63 5.19,-36.9 -4.51,-0.63 0.65,-4.64 z"
   id="path1532" />
			<path
   class="st9"
   d="m 505.41,503.79 h -24.19 v -46.63 h 5.46 v 41.69 h 18.73 z"
   id="path1534" />
			<path
   class="st3"
   d="m 534.74,420.89 0.49,4.66 -4.53,0.48 3.89,37.06 4.53,-0.48 0.49,4.66 -14.49,1.52 -0.49,-4.66 4.53,-0.48 -3.89,-37.06 -4.53,0.48 -0.49,-4.66 z"
   id="path1536" />
			<path
   class="st9"
   d="m 596.27,489.22 c -3.61,1.46 -7.98,1.93 -13.09,1.4 -6.6,-0.68 -11.66,-3.34 -15.2,-8 -3.53,-4.66 -4.94,-10.43 -4.23,-17.33 0.76,-7.42 3.61,-13.18 8.54,-17.3 4.93,-4.12 10.83,-5.82 17.69,-5.11 4.4,0.45 7.98,1.46 10.74,3.03 l -0.59,5.79 c -3.13,-2.2 -6.7,-3.5 -10.71,-3.91 -5.33,-0.55 -9.83,0.79 -13.5,4.01 -3.68,3.22 -5.82,7.8 -6.43,13.75 -0.58,5.65 0.5,10.31 3.25,13.98 2.75,3.67 6.64,5.76 11.66,6.28 4.66,0.48 8.8,-0.14 12.42,-1.86 z"
   id="path1538" />
			<rect
   x="115.37"
   y="433.72"
   class="st9"
   width="22.74"
   height="81.629997"
   id="rect1540" />
			<g
   id="g1546">
				<g
   id="g1544">
					<path
   class="st9"
   d="m 121.49,515.26 c 16.64,-0.13 33.27,-0.26 49.91,-0.39 39.96,-0.31 79.91,-0.62 119.87,-0.93 48.34,-0.38 96.68,-0.75 145.01,-1.13 41.78,-0.33 83.57,-0.65 125.35,-0.98 13.77,-0.11 27.53,-0.21 41.3,-0.32 6.29,-0.05 13.35,0.8 19.58,-0.15 0.27,-0.04 0.57,0 0.85,-0.01 1.61,-0.01 1.61,-2.51 0,-2.5 -16.64,0.13 -33.27,0.26 -49.91,0.39 -39.96,0.31 -79.91,0.62 -119.87,0.93 -48.34,0.38 -96.68,0.75 -145.01,1.13 -41.78,0.33 -83.57,0.65 -125.35,0.98 -13.77,0.11 -27.53,0.21 -41.3,0.32 -6.29,0.05 -13.35,-0.8 -19.58,0.15 -0.27,0.04 -0.57,0 -0.85,0.01 -1.61,0.01 -1.61,2.51 0,2.5 z"
   id="path1542" />
				</g>
			</g>
			<g
   id="g1552">
				<g
   id="g1550">
					<path
   class="st9"
   d="m 118.98,496.07 c 17.55,-0.14 35.09,-0.27 52.64,-0.41 42.12,-0.33 84.24,-0.66 126.36,-0.98 50.76,-0.4 101.52,-0.79 152.28,-1.19 43.89,-0.34 87.77,-0.68 131.66,-1.03 14.52,-0.11 29.04,-0.23 43.56,-0.34 6.66,-0.05 14.05,0.8 20.66,-0.16 0.29,-0.04 0.6,0 0.89,-0.01 1.61,-0.01 1.61,-2.51 0,-2.5 -17.55,0.14 -35.09,0.27 -52.64,0.41 -42.12,0.33 -84.24,0.66 -126.36,0.98 -50.76,0.4 -101.52,0.79 -152.28,1.19 -43.89,0.34 -87.77,0.68 -131.66,1.03 -14.52,0.11 -29.04,0.23 -43.56,0.34 -6.66,0.05 -14.05,-0.8 -20.66,0.16 -0.29,0.04 -0.6,0 -0.89,0.01 -1.61,0.01 -1.61,2.51 0,2.5 z"
   id="path1548" />
				</g>
			</g>
			<g
   id="g1558">
				<g
   id="g1556">
					<path
   class="st9"
   d="m 120.25,476.59 c 17.68,-0.13 35.36,-0.26 53.03,-0.39 42.11,-0.31 84.21,-0.62 126.32,-0.92 51.24,-0.37 102.49,-0.75 153.73,-1.12 44.03,-0.32 88.05,-0.64 132.08,-0.97 14.62,-0.11 29.23,-0.21 43.85,-0.32 6.68,-0.05 14.15,0.84 20.78,-0.15 0.28,-0.04 0.6,0 0.89,-0.01 1.61,-0.01 1.61,-2.51 0,-2.5 -17.68,0.13 -35.36,0.26 -53.03,0.39 -42.11,0.31 -84.21,0.62 -126.32,0.92 -51.24,0.37 -102.49,0.75 -153.73,1.12 -44.03,0.32 -88.05,0.64 -132.08,0.97 -14.62,0.11 -29.23,0.21 -43.85,0.32 -6.68,0.05 -14.15,-0.84 -20.78,0.15 -0.28,0.04 -0.6,0 -0.89,0.01 -1.61,0.02 -1.61,2.52 0,2.5 z"
   id="path1554" />
				</g>
			</g>
			<g
   id="g1564">
				<g
   id="g1562">
					<path
   class="st9"
   d="m 119.63,456.49 c 17.5,-0.12 35,-0.24 52.51,-0.36 41.85,-0.28 83.7,-0.57 125.55,-0.85 50.77,-0.35 101.54,-0.69 152.31,-1.04 43.73,-0.3 87.45,-0.59 131.18,-0.89 14.41,-0.1 28.82,-0.2 43.23,-0.29 6.61,-0.04 13.96,0.81 20.52,-0.14 0.29,-0.04 0.61,0 0.9,-0.01 1.61,-0.01 1.61,-2.51 0,-2.5 -17.5,0.12 -35,0.24 -52.51,0.36 -41.85,0.28 -83.7,0.57 -125.55,0.85 -50.77,0.35 -101.54,0.69 -152.31,1.04 -43.73,0.3 -87.45,0.59 -131.18,0.89 -14.41,0.1 -28.82,0.2 -43.23,0.29 -6.61,0.04 -13.96,-0.81 -20.52,0.14 -0.29,0.04 -0.61,0 -0.9,0.01 -1.6,0.01 -1.61,2.51 0,2.5 z"
   id="path1560" />
				</g>
			</g>
			<g
   id="g1570">
				<g
   id="g1568">
					<path
   class="st9"
   d="m 119.06,436.38 c 16.74,-0.1 33.48,-0.21 50.22,-0.31 40.2,-0.25 80.4,-0.5 120.6,-0.75 48.63,-0.3 97.26,-0.61 145.88,-0.91 42.03,-0.26 84.05,-0.53 126.08,-0.79 13.84,-0.09 27.68,-0.17 41.52,-0.26 6.3,-0.04 13.42,0.85 19.66,-0.12 0.27,-0.04 0.57,0 0.84,-0.01 1.61,-0.01 1.61,-2.51 0,-2.5 -16.74,0.1 -33.48,0.21 -50.22,0.31 -40.2,0.25 -80.4,0.5 -120.6,0.75 -48.63,0.3 -97.26,0.61 -145.88,0.91 -42.03,0.26 -84.05,0.53 -126.08,0.79 -13.84,0.09 -27.68,0.17 -41.52,0.26 -6.3,0.04 -13.42,-0.85 -19.66,0.12 -0.27,0.04 -0.57,0 -0.84,0.01 -1.61,0.01 -1.61,2.51 0,2.5 z"
   id="path1566" />
				</g>
			</g>
		</g>
		<g
   id="g1600">
			<path
   class="st13"
   d="m 150.82,372.6 c -1.95,1.54 -3.52,1.19 -8.36,2.06 -4.29,0.78 -9.86,1.79 -10.1,3.65 -0.21,1.66 3.83,3.52 6.28,4.65 6.18,2.85 9.55,2.16 11.15,5 0.24,0.43 0.16,0.43 0.92,4.57 0.39,2.12 0.83,4.23 1.23,6.35 2.23,11.7 6.08,21.77 6.08,21.77 2.15,5.63 5.52,11.28 12.24,22.59 5.29,8.89 7.93,13.33 9.71,15.52 2.11,2.59 13.13,16.16 25.68,19.59 1.27,0.35 4.62,1.16 9.04,3.02 3.84,1.62 4.44,2.34 8.05,4.08 3.67,1.77 9.12,4.4 16.01,5.35 5.98,0.83 9.41,-0.11 10.01,1.46 0.37,0.97 -1.29,2.84 -4.64,6.54 -2.94,3.25 -4.45,4.9 -6.19,5.82 -3.06,1.63 -5.88,1.72 -7.6,1.78 -2.42,0.08 -4.75,0.16 -6.69,-1.31 -1.33,-1.01 -1.11,-1.72 -2.39,-2.73 -1.11,-0.88 -2.55,-1.34 -6.69,-1.31 -4.98,0.04 -7.47,0.06 -9.88,1.18 -1.12,0.52 -5.9,2.74 -5.9,6.26 0,0.19 0.02,2.12 1.41,3.2 2.16,1.68 4.61,-1.1 8.31,0.13 2.72,0.9 3.34,3.05 5.48,2.77 1.28,-0.17 1.43,-0.99 2.77,-1.6 2.63,-1.2 4.32,0.91 9.25,1.74 4.72,0.79 5.67,-0.72 9.48,0.71 2.09,0.78 1.99,1.31 4.41,2.15 2.88,1 3.58,0.46 7.2,1.3 3.34,0.78 2.88,1.27 6.46,2.09 2.89,0.66 6.42,1.07 6.42,1.07 0,0 0.41,-2.46 1.44,-2.86 1.11,-0.43 3.4,1.39 4.21,3.69 0.71,2.01 -0.06,3.42 0.64,3.81 0.81,0.45 2.84,-0.88 3.74,-2.68 1.39,-2.77 -0.03,-6.44 -1.82,-8.63 -2.77,-3.38 -7.07,-3.97 -9.34,-4.29 -5.9,-0.82 -9.8,1.18 -10.48,-0.17 -0.18,-0.35 -0.11,-0.85 3.16,-4.96 4.11,-5.17 5.01,-5.64 5.94,-5.82 1.58,-0.29 1.91,0.53 4.97,0.88 1.91,0.22 3.38,0.07 5.53,-0.2 6.79,-0.88 7.92,-1.5 11.94,-1.93 4.97,-0.53 7.46,-0.8 10.47,-0.09 3.26,0.77 5.92,2.25 8.71,0.98 1.07,-0.49 1.45,-1.06 2.53,-1.09 2.35,-0.06 3.24,2.58 4.93,2.39 1.55,-0.17 2.88,-2.62 2.91,-4.69 0.05,-3.28 -3.12,-6.19 -6.08,-6.72 -1.38,-0.25 -1.65,0.21 -6.61,1.27 -5.48,1.16 -6.14,0.82 -6.37,0.47 -0.41,-0.62 0.33,-1.54 1.9,-4.41 2.12,-3.87 1.72,-3.93 3.35,-6.75 2.21,-3.81 2.62,-3.17 4.39,-6.28 0.9,-1.58 3.09,-5.42 3.48,-10.26 0.12,-1.42 0.24,-4.96 0.24,-4.96 15.99,-11.52 20.04,-15.45 20.04,-15.45 7.85,-7.62 14.39,-16.94 14.51,-17.08 28.41,-1.46 35.7,-1.94 35.7,-1.94 24.88,-1.66 46.07,-3.14 46.27,-6.64 0.05,-0.89 -1.28,-1.66 -2.89,-2.46 -12.92,-6.43 -25.89,-6.26 -29.33,-6.18 -7.89,0.18 -16.24,0.91 -32.62,2.35 -12.38,1.09 -16,1.51 -22.2,0.73 -7.31,-0.92 -12.98,-2.85 -19.84,-5.22 -9.53,-3.3 -9.45,-4.23 -20.46,-8.52 -13.28,-5.18 -19.92,-7.77 -27.9,-9.3 -3.8,-0.73 -8.48,-1.39 -14.19,-4.39 -4.25,-2.23 -6.92,-4.62 -8.9,-6.35 -2.76,-2.41 -13.9,-12.14 -22.1,-17.11 -10.97,-6.67 -21.67,-7.87 -26.52,-8.36 -6.78,-0.69 -16.89,-1.72 -26.96,3.44 -5.18,2.66 -9.88,5.06 -12.12,10.1 -1.01,2.31 -1.21,4.49 -3.42,6.23 z"
   id="path1574" />
			<g
   id="g1598">
				<path
   class="st14"
   d="m 306.39,493.91 c -1.53,-1.89 -3.87,-2.05 -4.28,-2.07 -0.67,-0.04 -1.46,0.13 -3,0.49 -2.66,0.62 -3.04,0.93 -4.67,1.27 -1.95,0.4 -3.47,0.38 -4.9,0.36 -1.03,-0.01 -2.25,-0.09 -3.63,-0.29 0.3,-0.47 0.55,-1.09 0.89,-1.88 0.79,-1.81 1.91,-3.47 2.71,-5.27 1.33,-2.99 2.35,-4.32 5.95,-9.72 2.06,-3.1 4.48,-8.55 5.85,-18.84 -1.9,0.98 -3.81,1.96 -5.71,2.94 -2.76,10.38 -4.23,14 -5.06,15.24 -1.38,2.05 -1.68,2.6 -2.32,3.67 -0.28,0.47 -0.51,0.88 -0.79,1.39 -0.04,0.08 -0.18,0.33 -0.38,0.67 -0.36,0.63 -0.76,1.27 -1.52,2.5 -2.03,3.25 -3.48,5.35 -4.19,6.83 -1.34,0.77 -2.53,1.17 -3.38,1.39 -0.97,0.25 -2.38,0.32 -5.19,0.44 -2.37,0.11 -3.04,0.04 -3.81,-0.26 -1.1,-0.42 -1.13,-0.81 -2.14,-1.04 -1.09,-0.24 -2.07,-0.01 -2.75,0.25 -0.11,-0.02 -0.22,-0.05 -0.33,-0.06 -0.31,-0.04 -0.68,-0.01 -1.21,0.09 -0.59,0.81 -1.16,1.62 -1.78,2.43 -0.65,0.86 -1.29,1.71 -1.93,2.54 0.28,0.12 0.59,0.21 0.96,0.22 0.58,0.02 0.99,-0.15 1.4,-0.38 0.05,0.2 0.12,0.4 0.21,0.59 0.5,1.04 1.52,1.61 1.63,1.5 0.1,-0.09 -0.49,-0.64 -0.76,-1.74 -0.06,-0.24 -0.13,-0.55 -0.14,-0.88 0.07,-0.03 0.13,-0.07 0.2,-0.1 0.06,-0.03 0.12,-0.05 0.19,-0.08 0.04,0 0.07,0 0.1,0 1.01,-0.01 1.64,-0.18 2.24,-0.35 0.13,0.13 0.34,0.32 0.62,0.55 1.24,1.01 4.55,0.7 4.55,0.7 5.73,-0.39 5.37,-0.14 7.98,-0.55 1.75,-0.28 2.9,-0.46 3.74,-0.78 0.35,0.26 0.76,0.51 1.24,0.72 0.76,0.34 1.58,0.55 3.6,0.64 2.59,0.12 2.73,-0.15 4.98,-0.06 2.24,0.09 3.36,0.13 4.47,0.4 0.55,0.13 1.75,0.46 3.15,0.11 0.8,-0.2 1,-0.45 1.09,-0.62 0.39,-0.77 -0.58,-1.79 -0.25,-2.2 0.22,-0.27 0.83,-0.07 1.61,0.21 2.29,0.8 3.43,1.2 3.83,1.55 1.59,1.4 1.52,3.44 1.8,3.4 0.39,-0.07 1.05,-3.55 -0.87,-5.92 z"
   id="path1576" />
				<path
   class="st15"
   d="m 174.91,412.98 c -4.4,-4.39 -5.93,-8.12 -11.51,-16.99 -2.86,-4.54 -6.47,-9.93 -10.9,-15.86 -0.91,4.73 -0.36,8.81 0.2,12.05 3.84,22.25 13.9,41.4 19.67,51.23 1.52,-0.93 3.14,-2.03 4.8,-3.36 1.53,-1.22 4.67,-3.9 10.89,-11.97 1.64,-2.13 2.84,-3.79 3.79,-5.16 -7.63,-2.4 -13.03,-6.03 -16.94,-9.94 z"
   id="path1578" />
				<path
   class="st16"
   d="m 228.94,371.47 c -7.57,-5.31 -11.36,-7.96 -16.52,-10.31 -3.74,-1.7 -12.02,-5.36 -23.29,-5.76 -7.85,-0.28 -18.35,-0.66 -26.97,6.53 -6.41,5.35 -8.61,12.23 -9.09,13.84 -0.25,0.85 -0.45,1.67 -0.6,2.48 4.62,6.1 8.38,11.65 11.36,16.32 5.81,9.13 7.4,12.97 11.99,17.49 4.08,4.02 9.7,7.75 17.63,10.22 2.98,-4.26 3.46,-5.69 6.56,-9.18 3.49,-3.93 7.19,-6.57 14.59,-11.86 7.77,-5.55 14.35,-9.4 22.71,-14.28 2.64,-1.54 5,-2.89 7,-4.01 -3.96,-2.56 -6.64,-5.36 -15.37,-11.48 z"
   id="path1580" />
				<path
   class="st14"
   d="m 253.33,490.57 c -1.09,1.67 -2.85,4.16 -5.4,6.91 -0.88,0.94 -1.49,1.56 -3.21,3.23 -3.39,3.29 -5.75,5.38 -7.04,6.94 -1.86,0.53 -3.44,0.68 -4.55,0.7 -1.26,0.03 -3.02,-0.29 -6.53,-0.93 -2.95,-0.54 -3.75,-0.8 -4.63,-1.38 -1.24,-0.81 -1.17,-1.29 -2.35,-1.83 -1.27,-0.59 -2.55,-0.59 -3.46,-0.47 -0.12,-0.06 -0.25,-0.11 -0.39,-0.16 -0.61,-0.22 -1.43,-0.24 -3.07,-0.28 -2.7,-0.06 -4.07,-0.08 -5.33,0.56 -0.3,0.15 -0.84,0.43 -1.37,0.93 -1.03,0.01 -1.94,0.21 -2.77,0.74 -2.14,1.36 -2.75,4.16 -2.53,4.29 0.16,0.1 0.78,-1.29 2.6,-2.38 0.53,-0.32 0.99,-0.59 1.47,-0.73 -0.56,1.66 -0.14,3.32 0.14,3.35 0.31,0.04 0.29,-1.91 1.48,-3.28 1.04,0.44 1.58,1.59 3.06,1.98 0.71,0.19 1.25,0.1 1.84,-0.06 0.01,0.25 0.04,0.51 0.1,0.76 0.33,1.38 1.43,2.34 1.6,2.24 0.15,-0.08 -0.43,-0.9 -0.46,-2.28 -0.01,-0.3 -0.01,-0.69 0.06,-1.09 0.09,-0.02 0.18,-0.05 0.28,-0.07 0.08,-0.02 0.17,-0.03 0.25,-0.04 0.04,0.01 0.08,0.02 0.13,0.03 1.24,0.27 2.07,0.25 2.86,0.21 0.13,0.19 0.33,0.47 0.61,0.82 1.25,1.54 5.42,2.11 5.42,2.11 7.17,1.14 6.66,1.34 9.99,1.58 2.24,0.16 3.7,0.26 4.83,0.12 0.36,0.4 0.8,0.82 1.33,1.2 0.84,0.62 1.8,1.09 4.26,1.77 3.17,0.87 3.41,0.59 6.16,1.33 2.74,0.73 4.11,1.1 5.41,1.73 0.64,0.31 2.04,1.04 3.85,1.02 1.03,-0.01 1.36,-0.25 1.51,-0.43 0.7,-0.8 -0.22,-2.29 0.29,-2.68 0.34,-0.25 1.04,0.15 1.93,0.7 2.6,1.59 3.9,2.39 4.3,2.91 1.58,2.11 0.93,4.52 1.3,4.54 0.47,0.03 2.24,-3.92 0.52,-7.28 -1.37,-2.68 -4.21,-3.52 -4.71,-3.67 -0.82,-0.24 -1.83,-0.25 -3.83,-0.26 -3.45,-0.01 -4,0.26 -6.11,0.2 -2.52,-0.07 -4.39,-0.52 -6.14,-0.94 -1.26,-0.3 -2.75,-0.74 -4.4,-1.36 0.5,-0.48 0.97,-1.14 1.61,-1.99 1.47,-1.93 3.3,-3.58 4.79,-5.51 2.92,-3.77 6.56,-6.22 9.99,-9.88 1.47,-1.57 3.53,-3.92 5.78,-7.04 -1.58,0.98 -4.03,2.22 -7.23,2.79 -1.59,0.31 -3.04,0.37 -4.24,0.33 z"
   id="path1582" />
				<path
   class="st17"
   d="m 154.7,376.31 c 0,0 -7.4,-0.94 -14.99,0.69 -3.6,0.78 -4.17,1.47 -4.21,1.94 -0.05,0.54 0.59,1.05 2.49,2.15 2.69,1.54 4.04,2.32 6.38,3.14 5,1.75 4.32,0.7 7.75,2.18 0.82,0.36 2.42,1.1 3.27,0.44 0.55,-0.42 0.41,-1.12 0.98,-1.39 0.92,-0.44 2.19,0.98 2.49,0.74 0.25,-0.19 -0.18,-1.39 -2.65,-5.33 0,-0.01 -0.23,-0.57 -1.51,-4.56 z"
   id="path1584" />
				<path
   class="st13"
   d="m 173.24,380.81 c 1.58,-3.16 4.58,-4.36 5.63,-4.78 5.23,-2.1 9.93,0.41 10.41,0.68 1.03,0.57 5.11,2.84 5.69,7.31 0.43,3.34 -1.37,5.88 -1.83,6.53 -2.87,4.05 -7.74,4.46 -8.88,4.55 -1.54,0.13 -5.61,0.46 -8.77,-2.44 -3.16,-2.92 -4.19,-7.99 -2.25,-11.85 z"
   id="path1586" />
				<circle
   class="st18"
   cx="182.91"
   cy="384.79999"
   r="6.8200002"
   id="circle1588" />
				<circle
   class="st13"
   cx="182.89999"
   cy="384.62"
   r="2.4200001"
   id="circle1590" />
				<path
   class="st19"
   d="m 263.45,446.54 c -19.26,0.2 -15.12,-2.47 -43.39,-4.02 -3.9,-0.21 -8.24,-0.4 -13.04,-2.98 -7.18,-3.86 -10.99,-10.71 -13.02,-15.81 -0.95,1.35 -2.15,2.97 -3.75,5.03 -6.48,8.32 -9.75,11.07 -11.35,12.33 -1.73,1.37 -3.42,2.5 -5,3.46 0.57,0.95 1.1,1.83 1.57,2.61 4.55,7.4 6.95,10.33 8.93,12.48 5.79,6.31 12.72,11.26 23.36,16.26 21.98,10.34 36.64,17.24 52.85,11.88 10.91,-3.61 22.6,-12.79 26.05,-18.57 0.3,-0.5 1.41,-2.44 3.41,-4.63 3.74,-4.12 7.76,-6.03 9.06,-6.68 7.09,-3.54 13.93,-9.81 23.37,-18.46 1.57,-1.44 3.17,-2.91 4.73,-4.37 -8.1,3.06 -18.37,6.27 -30.49,8.51 -14.79,2.72 -26.22,2.89 -33.29,2.96 z"
   id="path1592" />
				<path
   class="st20"
   d="m 408.43,414.11 c -2.16,-0.6 -3.9,-0.79 -4.58,-0.86 -13.35,-1.29 -23.79,-0.2 -23.79,-0.2 -12.52,1.3 -25.16,0.88 -37.74,1.41 -3.86,0.16 -7.38,0.31 -10.47,0.44 -1.54,-0.26 -3.37,-0.54 -5.5,-0.97 -5.89,-1.2 -5.72,-1.88 -24.16,-9.12 -17.39,-6.84 -26.08,-10.25 -35.34,-12.98 -9.83,-2.89 -11.8,-2.81 -17.13,-5.5 -1.53,-0.77 -2.78,-1.49 -3.92,-2.23 -1.97,1.09 -4.31,2.41 -6.93,3.92 -8.28,4.77 -14.8,8.54 -22.49,13.96 -7.33,5.16 -10.99,7.74 -14.45,11.59 -3.13,3.48 -3.57,4.88 -6.7,9.24 2.01,4.98 5.78,11.68 12.89,15.44 4.75,2.52 9.05,2.69 12.91,2.9 28,1.5 23.89,4.11 42.97,3.91 7,-0.07 18.32,-0.24 32.96,-2.92 12.01,-2.19 22.18,-5.33 30.2,-8.32 3.94,-3.66 7.55,-7.3 9.54,-10.43 56.41,-3.83 76.72,-6.06 76.67,-7.29 0,-0.5 -3.56,-1.61 -4.94,-1.99 z"
   id="path1594" />
				<path
   class="st21"
   d="m 167.25,374.71 c -0.45,-0.97 5.53,-6.26 13.38,-7.25 2.99,-0.38 7.15,-0.24 13.71,2.61 16.12,7.02 25.64,21.28 24.91,22 -0.47,0.46 -4.98,-4.81 -16.41,-12.06 -7.94,-5.03 -12.02,-7.56 -17.64,-8.27 -10.14,-1.29 -17.47,4.01 -17.95,2.97 z"
   id="path1596" />
			</g>
		</g>
	</g>
	<path
   class="st9"
   d="m 457.97,441.5 c -3.56,-1.55 -5.33,-0.87 -9.45,-2.58 -2.8,-1.16 -4.89,-2.7 -6.3,-3.94 l -0.13,4.57 -0.2,7.24 -0.63,22.31 c -1.81,-0.84 -3.96,-1.36 -6.29,-1.42 -6.55,-0.19 -11.97,3.26 -12.09,7.7 -0.12,4.44 5.09,8.19 11.64,8.37 6.06,0.17 11.13,-2.76 11.97,-6.71 h 0.1 l 0.88,-31.15 c 2.48,-0.19 5.25,-0.13 8.23,0.45 5.88,1.15 9.45,3.68 10.06,2.88 0.66,-0.87 -2.68,-5.49 -7.79,-7.72 z"
   id="path1604" />
	<path
   class="st9"
   d="m 542.02,418 c -3.73,-1.1 -5.4,-0.2 -9.7,-1.39 -2.92,-0.81 -5.18,-2.08 -6.74,-3.13 l 0.44,4.55 0.69,7.21 2.13,22.21 c -1.9,-0.61 -4.1,-0.86 -6.41,-0.64 -6.53,0.63 -11.47,4.72 -11.05,9.14 0.42,4.42 6.06,7.5 12.59,6.87 6.03,-0.58 10.7,-4.12 11.05,-8.14 l 0.1,-0.01 -2.97,-31.02 c 2.44,-0.5 5.2,-0.78 8.22,-0.57 5.98,0.41 9.83,2.48 10.34,1.62 0.55,-0.95 -3.34,-5.12 -8.69,-6.7 z"
   id="path1606" />
</g>
</svg>
