<?xml version="1.0" encoding="UTF-8" standalone="no"?>
<svg
   xmlns:dc="http://purl.org/dc/elements/1.1/"
   xmlns:cc="http://creativecommons.org/ns#"
   xmlns:rdf="http://www.w3.org/1999/02/22-rdf-syntax-ns#"
   xmlns:svg="http://www.w3.org/2000/svg"
   xmlns="http://www.w3.org/2000/svg"
   xmlns:sodipodi="http://sodipodi.sourceforge.net/DTD/sodipodi-0.dtd"
   xmlns:inkscape="http://www.inkscape.org/namespaces/inkscape"
   version="1.1"
   id="圖層_1"
   x="0px"
   y="0px"
   viewBox="0 0 790.24095 194.27015"
   xml:space="preserve"
   sodipodi:docname="silic_logo_nocolor_big.svg"
   width="790.24097"
   height="194.27016"
   inkscape:version="1.0.2 (e86c870879, 2021-01-15, custom)"><metadata
   id="metadata66"><rdf:RDF><cc:Work
       rdf:about=""><dc:format>image/svg+xml</dc:format><dc:type
         rdf:resource="http://purl.org/dc/dcmitype/StillImage" /><dc:title></dc:title></cc:Work></rdf:RDF></metadata><defs
   id="defs64" /><sodipodi:namedview
   pagecolor="#ffffff"
   bordercolor="#666666"
   borderopacity="1"
   objecttolerance="10"
   gridtolerance="10"
   guidetolerance="10"
   inkscape:pageopacity="0"
   inkscape:pageshadow="2"
   inkscape:window-width="1920"
   inkscape:window-height="1017"
   id="namedview62"
   showgrid="false"
   inkscape:zoom="1.3564717"
   inkscape:cx="26.682884"
   inkscape:cy="66.359704"
   inkscape:window-x="1912"
   inkscape:window-y="438"
   inkscape:window-maximized="1"
   inkscape:current-layer="g59" />
<style
   type="text/css"
   id="style39">
	.st0{fill:#FFFFFF;}
</style>
<g
   id="g59"
   style="fill:#504416"
   transform="translate(-25.82,-229.04026)">
	<g
   id="g51"
   style="fill:#504416">
		<path
   class="st0"
   d="m 25.82,361.96 v -13.42 c 1.54,1.36 3.38,2.58 5.52,3.66 2.15,1.08 4.41,2 6.78,2.75 2.37,0.75 4.76,1.32 7.15,1.73 2.4,0.41 4.61,0.61 6.64,0.61 7,0 12.24,-1.3 15.69,-3.9 3.45,-2.6 5.19,-6.34 5.19,-11.22 0,-2.62 -0.58,-4.9 -1.73,-6.85 -1.15,-1.94 -2.75,-3.72 -4.78,-5.32 -2.03,-1.6 -4.44,-3.14 -7.22,-4.61 -2.78,-1.47 -5.77,-3.02 -8.98,-4.64 -3.39,-1.72 -6.55,-3.46 -9.49,-5.22 -2.94,-1.76 -5.49,-3.71 -7.66,-5.83 -2.17,-2.12 -3.88,-4.53 -5.12,-7.22 -1.24,-2.69 -1.86,-5.84 -1.86,-9.46 0,-4.43 0.97,-8.28 2.91,-11.56 1.94,-3.28 4.5,-5.98 7.66,-8.1 3.16,-2.12 6.77,-3.71 10.81,-4.75 4.04,-1.04 8.17,-1.56 12.37,-1.56 9.58,0 16.56,1.15 20.95,3.46 v 12.81 c -5.74,-3.98 -13.11,-5.97 -22.1,-5.97 -2.49,0 -4.97,0.26 -7.46,0.78 -2.49,0.52 -4.7,1.37 -6.64,2.54 -1.94,1.18 -3.53,2.69 -4.75,4.54 -1.22,1.85 -1.83,4.11 -1.83,6.78 0,2.49 0.46,4.63 1.39,6.44 0.93,1.81 2.29,3.46 4.1,4.95 1.81,1.49 4.01,2.94 6.61,4.34 2.6,1.4 5.59,2.94 8.98,4.61 3.48,1.72 6.78,3.53 9.9,5.42 3.12,1.9 5.85,4 8.2,6.3 2.35,2.3 4.21,4.86 5.59,7.66 1.38,2.8 2.07,6.01 2.07,9.63 0,4.79 -0.94,8.85 -2.81,12.17 -1.88,3.32 -4.41,6.02 -7.59,8.1 -3.19,2.08 -6.86,3.58 -11.02,4.51 -4.16,0.93 -8.54,1.39 -13.15,1.39 -1.54,0 -3.43,-0.12 -5.69,-0.37 -2.26,-0.25 -4.57,-0.61 -6.91,-1.08 -2.35,-0.47 -4.58,-1.06 -6.68,-1.76 -2.09,-0.7 -3.78,-1.48 -5.04,-2.34 z"
   id="path41"
   style="fill:#504416" />
		<path
   class="st0"
   d="m 163.02,268.69 v 9.76 h -9.49 v 77.69 h 9.49 v 9.76 h -30.37 v -9.76 h 9.49 v -77.69 h -9.49 v -9.76 z"
   id="path43"
   style="fill:#504416" />
		<path
   class="st0"
   d="m 267.55,365.9 h -50.43 v -97.21 h 11.39 v 86.91 h 39.05 v 10.3 z"
   id="path45"
   style="fill:#504416" />
		<path
   class="st0"
   d="m 341.38,268.69 v 9.76 h -9.49 v 77.69 h 9.49 v 9.76 h -30.37 v -9.76 h 9.49 v -77.69 h -9.49 v -9.76 z"
   id="path47"
   style="fill:#504416" />
		<path
   class="st0"
   d="m 461.63,361.83 c -7.19,3.8 -16.13,5.69 -26.84,5.69 -13.83,0 -24.9,-4.45 -33.22,-13.35 -8.32,-8.9 -12.47,-20.59 -12.47,-35.05 0,-15.55 4.68,-28.11 14.03,-37.69 9.35,-9.58 21.22,-14.37 35.59,-14.37 9.22,0 16.86,1.33 22.91,4 v 12.13 c -6.96,-3.89 -14.64,-5.83 -23.05,-5.83 -11.16,0 -20.21,3.73 -27.15,11.19 -6.94,7.46 -10.41,17.42 -10.41,29.89 0,11.84 3.24,21.27 9.73,28.3 6.49,7.03 14.99,10.54 25.52,10.54 9.76,0 18.21,-2.17 25.35,-6.51 v 11.06 z"
   id="path49"
   style="fill:#504416" />
	</g>
	<g
   id="g57"
   style="fill:#504416">
		<path
   class="st0"
   d="m 770.12,299.19 c -20.87,0.32 -32.58,0.5 -38.44,0.88 -0.71,0.05 -3.06,0.21 -6.19,0 -3.25,-0.22 -5.83,-0.78 -8.39,-1.33 -6.84,-1.47 -11.91,-3.32 -13.7,-3.98 -10.11,-3.74 -15.38,-6.52 -23.86,-10.16 -12.78,-5.48 -10.64,-3.37 -22.09,-8.39 -14.79,-6.49 -19.28,-10.42 -26.51,-12.81 -0.87,-0.29 -3.42,-1.09 -6.19,-3.09 -2.85,-2.06 -4.44,-4.29 -4.86,-4.86 -4.44,-5.99 -18.31,-14.81 -21.65,-16.79 -15.93,-9.47 -48.23,-15.61 -64.07,-0.44 -5.09,4.88 -7.43,10.96 -7.95,12.37 -0.22,0.59 -0.41,1.18 -0.59,1.77 -2.6,0 -5.21,0.1 -7.81,0 -2.18,-0.09 -4.05,-0.25 -6.63,0 0,0 -1.45,0.14 -3.53,0.88 -2.07,0.74 -2.19,1.19 -2.21,1.33 -0.12,0.7 0.97,1.43 2.21,2.21 4.45,2.79 6.19,3.53 6.19,3.53 3.89,1.66 5.83,2.49 8.39,3.09 0.63,0.15 1.35,0.3 2.14,0.43 0.21,4.05 0.96,8.34 1.84,13.26 0.57,3.21 1.97,10.27 5.74,21.21 3.39,9.83 6.74,19.51 13.7,30.93 4.88,8.01 10.82,17.76 22.09,26.51 4.27,3.32 10.8,6.48 23.86,12.81 26.34,12.77 32.51,13.48 35.79,13.7 1.83,0.12 4.77,0.29 8.38,0.02 -4.15,3.93 -8.12,8.07 -12.35,11.91 -4.04,3.67 -6.86,6 -8.4,7.75 -2.17,0.55 -4,0.65 -5.29,0.64 -1.46,-0.01 -3.48,-0.45 -7.51,-1.33 -3.4,-0.74 -4.31,-1.07 -5.3,-1.77 -1.41,-0.99 -1.31,-1.53 -2.65,-2.21 -1.45,-0.73 -2.93,-0.78 -3.98,-0.68 -0.14,-0.07 -0.29,-0.14 -0.44,-0.2 -0.69,-0.28 -1.64,-0.34 -3.53,-0.44 -3.11,-0.17 -4.7,-0.25 -6.19,0.44 -0.35,0.16 -0.99,0.47 -1.62,1.02 -1.19,-0.03 -2.25,0.17 -3.24,0.75 -2.53,1.49 -3.34,4.7 -3.09,4.86 0.19,0.12 0.95,-1.47 3.09,-2.65 0.62,-0.35 1.16,-0.64 1.73,-0.79 -0.71,1.89 -0.29,3.83 0.04,3.88 0.36,0.05 0.4,-2.2 1.84,-3.74 1.18,0.55 1.77,1.9 3.46,2.41 0.81,0.25 1.45,0.17 2.12,0 0,0.29 0.02,0.59 0.08,0.88 0.33,1.61 1.56,2.76 1.77,2.65 0.17,-0.09 -0.47,-1.06 -0.44,-2.65 0.01,-0.34 0.01,-0.8 0.11,-1.26 0.11,-0.02 0.21,-0.05 0.33,-0.07 0.1,-0.02 0.2,-0.03 0.29,-0.04 0.05,0.01 0.09,0.03 0.15,0.04 1.43,0.36 2.39,0.37 3.3,0.35 0.14,0.23 0.36,0.56 0.68,0.97 1.39,1.83 6.19,2.65 6.19,2.65 8.24,1.59 7.65,1.8 11.49,2.21 2.58,0.27 4.27,0.45 5.58,0.32 0.41,0.48 0.89,0.97 1.49,1.44 0.95,0.75 2.04,1.33 4.86,2.21 3.63,1.13 3.92,0.81 7.07,1.77 3.14,0.95 4.71,1.43 6.19,2.21 0.73,0.38 2.32,1.28 4.42,1.33 1.2,0.03 1.58,-0.24 1.77,-0.44 0.83,-0.9 -0.17,-2.66 0.44,-3.09 0.4,-0.28 1.19,0.22 2.21,0.88 2.95,1.94 4.42,2.91 4.86,3.53 1.75,2.5 0.9,5.26 1.33,5.3 0.55,0.05 2.74,-4.45 0.88,-8.39 -1.48,-3.15 -4.74,-4.23 -5.3,-4.42 -0.94,-0.31 -2.11,-0.36 -4.42,-0.44 -3.99,-0.14 -4.64,0.14 -7.07,0 -2.91,-0.17 -5.05,-0.77 -7.07,-1.33 -1.45,-0.4 -3.16,-0.96 -5.04,-1.74 0.59,-0.53 1.17,-1.28 1.94,-2.24 1.78,-2.18 3.95,-4.02 5.74,-6.19 3.91,-4.72 7.06,-6.48 11.93,-11.05 2.03,-1.91 4.5,-4.43 7.16,-7.69 1.28,-0.45 2.58,-0.97 3.89,-1.59 5.49,-2.57 9.44,-5.85 11.93,-7.95 6.35,-5.35 9.13,-9.74 12.37,-13.7 2.67,-3.26 10.51,-8.85 26.07,-19.88 5.71,-4.05 10.32,-6.98 14.08,-9.42 12.74,2.29 20.78,4.92 21.26,3.67 0.48,-1.24 -6.94,-5.18 -8.84,-6.19 -1.52,-0.81 -3.24,-1.66 -5.14,-2.53 1.66,-1.31 3.06,-2.62 4.25,-4.09 0.52,-0.65 2.1,-2.67 4.86,-4.42 4.04,-2.57 8.06,-2.95 9.72,-3.09 28.82,-2.44 37.11,-2.21 37.11,-2.21 14.13,0.4 36.96,0.09 37.11,-1.77 0.17,-1.81 -22.06,-7.83 -45.94,-7.46 z M 573.94,268.26 c -0.4,3.32 -4.68,5.29 -6.63,6.19 -2.33,1.07 -6.27,2.89 -10.6,1.33 -3.17,-1.14 -4.87,-3.49 -6.19,-5.3 -1.3,-1.79 -3.18,-4.39 -2.65,-7.51 0.26,-1.52 0.99,-2.6 1.33,-3.09 1.46,-2.12 3.49,-2.98 4.86,-3.53 3.61,-1.47 6.85,-1.08 8.39,-0.88 2.76,0.36 6.29,0.82 8.39,3.53 0.91,1.17 1.34,2.55 2.21,5.3 0.67,2.07 0.99,3.11 0.89,3.96 z"
   id="path53"
   style="fill:#504416" />
		<path
   class="st0"
   d="m 560.91,259.2 c -0.79,-0.11 -2.89,-0.41 -4.86,0.88 -0.22,0.15 -2.82,1.9 -2.65,4.42 0.02,0.28 0.1,0.99 0.88,2.21 0.91,1.41 2.83,4.38 6.19,4.42 2.12,0.02 4.65,-1.12 5.74,-3.53 0.84,-1.84 0.68,-4.06 -0.44,-5.74 -1.44,-2.17 -3.85,-2.52 -4.86,-2.66 z"
   id="path55"
   style="fill:#504416" />
	</g>
</g>
</svg>
